<mxfile host="app.diagrams.net" modified="2023-05-19T04:57:19.646Z" agent="Mozilla/5.0 (Windows NT 10.0; Win64; x64) AppleWebKit/537.36 (KHTML, like Gecko) Chrome/113.0.0.0 Safari/537.36" etag="0I5W_v7Lkipcq45a9Eip" version="21.3.2" type="device" pages="9">
  <diagram name="Page-1" id="WvK5EC_QeuD8EqxzD22M">
    <mxGraphModel dx="731" dy="782" grid="1" gridSize="10" guides="1" tooltips="1" connect="1" arrows="1" fold="1" page="1" pageScale="1" pageWidth="850" pageHeight="1100" math="0" shadow="0">
      <root>
        <mxCell id="0" />
        <mxCell id="1" parent="0" />
        <mxCell id="HTLDhF4H5GUMRBfZyY-d-17" value="" style="shape=cube;whiteSpace=wrap;html=1;boundedLbl=1;backgroundOutline=1;darkOpacity=0.05;darkOpacity2=0.1;fillColor=#f8cecc;strokeColor=#b85450;" parent="1" vertex="1">
          <mxGeometry x="705" y="410" width="20" height="10" as="geometry" />
        </mxCell>
        <mxCell id="HTLDhF4H5GUMRBfZyY-d-11" value="" style="shape=cube;whiteSpace=wrap;html=1;boundedLbl=1;backgroundOutline=1;darkOpacity=0.05;darkOpacity2=0.1;" parent="1" vertex="1">
          <mxGeometry x="640" y="410" width="150" height="30" as="geometry" />
        </mxCell>
        <mxCell id="HTLDhF4H5GUMRBfZyY-d-71" value="" style="endArrow=none;html=1;rounded=0;" parent="1" edge="1">
          <mxGeometry width="50" height="50" relative="1" as="geometry">
            <mxPoint x="714.84" y="420" as="sourcePoint" />
            <mxPoint x="714.84" y="380" as="targetPoint" />
          </mxGeometry>
        </mxCell>
        <mxCell id="HTLDhF4H5GUMRBfZyY-d-20" value="" style="rounded=0;whiteSpace=wrap;html=1;dashed=1;dashPattern=8 8;fillColor=none;" parent="1" vertex="1">
          <mxGeometry x="60" y="300" width="130" height="150" as="geometry" />
        </mxCell>
        <mxCell id="HTLDhF4H5GUMRBfZyY-d-76" style="edgeStyle=orthogonalEdgeStyle;rounded=0;orthogonalLoop=1;jettySize=auto;html=1;exitX=0;exitY=0;exitDx=105;exitDy=10;exitPerimeter=0;entryX=0;entryY=0;entryDx=10;entryDy=20;entryPerimeter=0;endArrow=none;endFill=0;" parent="1" source="HTLDhF4H5GUMRBfZyY-d-1" target="HTLDhF4H5GUMRBfZyY-d-5" edge="1">
          <mxGeometry relative="1" as="geometry">
            <Array as="points">
              <mxPoint x="210" y="370" />
              <mxPoint x="210" y="420" />
            </Array>
          </mxGeometry>
        </mxCell>
        <mxCell id="HTLDhF4H5GUMRBfZyY-d-1" value="" style="shape=cube;whiteSpace=wrap;html=1;boundedLbl=1;backgroundOutline=1;darkOpacity=0.05;darkOpacity2=0.1;" parent="1" vertex="1">
          <mxGeometry x="67.5" y="360" width="115" height="30" as="geometry" />
        </mxCell>
        <mxCell id="HTLDhF4H5GUMRBfZyY-d-5" value="" style="shape=cube;whiteSpace=wrap;html=1;boundedLbl=1;backgroundOutline=1;darkOpacity=0.05;darkOpacity2=0.1;" parent="1" vertex="1">
          <mxGeometry x="244" y="400" width="170" height="30" as="geometry" />
        </mxCell>
        <mxCell id="HTLDhF4H5GUMRBfZyY-d-8" value="" style="shape=cube;whiteSpace=wrap;html=1;boundedLbl=1;backgroundOutline=1;darkOpacity=0.05;darkOpacity2=0.1;" parent="1" vertex="1">
          <mxGeometry x="455" y="410" width="150" height="30" as="geometry" />
        </mxCell>
        <mxCell id="HTLDhF4H5GUMRBfZyY-d-9" value="" style="shape=cube;whiteSpace=wrap;html=1;boundedLbl=1;backgroundOutline=1;darkOpacity=0.05;darkOpacity2=0.1;" parent="1" vertex="1">
          <mxGeometry x="675" y="330" width="60" height="30" as="geometry" />
        </mxCell>
        <mxCell id="HTLDhF4H5GUMRBfZyY-d-10" value="" style="shape=cube;whiteSpace=wrap;html=1;boundedLbl=1;backgroundOutline=1;darkOpacity=0.05;darkOpacity2=0.1;" parent="1" vertex="1">
          <mxGeometry x="665" y="370" width="100" height="30" as="geometry" />
        </mxCell>
        <mxCell id="HTLDhF4H5GUMRBfZyY-d-13" value="" style="shape=cube;whiteSpace=wrap;html=1;boundedLbl=1;backgroundOutline=1;darkOpacity=0.05;darkOpacity2=0.1;fillColor=#f8cecc;strokeColor=#b85450;" parent="1" vertex="1">
          <mxGeometry x="705" y="340" width="20" height="10" as="geometry" />
        </mxCell>
        <mxCell id="HTLDhF4H5GUMRBfZyY-d-14" value="" style="shape=cube;whiteSpace=wrap;html=1;boundedLbl=1;backgroundOutline=1;darkOpacity=0.05;darkOpacity2=0.1;fillColor=#f8cecc;strokeColor=#b85450;" parent="1" vertex="1">
          <mxGeometry x="705" y="380" width="20" height="10" as="geometry" />
        </mxCell>
        <mxCell id="HTLDhF4H5GUMRBfZyY-d-15" value="" style="shape=cube;whiteSpace=wrap;html=1;boundedLbl=1;backgroundOutline=1;darkOpacity=0.05;darkOpacity2=0.1;fillColor=#f8cecc;strokeColor=#b85450;" parent="1" vertex="1">
          <mxGeometry x="725" y="370" width="20" height="10" as="geometry" />
        </mxCell>
        <mxCell id="HTLDhF4H5GUMRBfZyY-d-16" value="" style="shape=cube;whiteSpace=wrap;html=1;boundedLbl=1;backgroundOutline=1;darkOpacity=0.05;darkOpacity2=0.1;fillColor=#f8cecc;strokeColor=#b85450;" parent="1" vertex="1">
          <mxGeometry x="675" y="420" width="20" height="10" as="geometry" />
        </mxCell>
        <mxCell id="HTLDhF4H5GUMRBfZyY-d-18" value="" style="shape=cube;whiteSpace=wrap;html=1;boundedLbl=1;backgroundOutline=1;darkOpacity=0.05;darkOpacity2=0.1;fillColor=#f8cecc;strokeColor=#b85450;" parent="1" vertex="1">
          <mxGeometry x="745" y="420" width="20" height="10" as="geometry" />
        </mxCell>
        <mxCell id="HTLDhF4H5GUMRBfZyY-d-31" value="" style="endArrow=none;html=1;rounded=0;exitX=0;exitY=0;exitDx=50;exitDy=10;exitPerimeter=0;entryX=0;entryY=0;entryDx=10;entryDy=20;entryPerimeter=0;" parent="1" source="HTLDhF4H5GUMRBfZyY-d-2" target="HTLDhF4H5GUMRBfZyY-d-6" edge="1">
          <mxGeometry width="50" height="50" relative="1" as="geometry">
            <mxPoint x="430" y="420" as="sourcePoint" />
            <mxPoint x="480" y="370" as="targetPoint" />
          </mxGeometry>
        </mxCell>
        <mxCell id="HTLDhF4H5GUMRBfZyY-d-41" value="" style="endArrow=none;html=1;rounded=0;" parent="1" edge="1">
          <mxGeometry width="50" height="50" relative="1" as="geometry">
            <mxPoint x="524.84" y="420" as="sourcePoint" />
            <mxPoint x="524.84" y="380" as="targetPoint" />
          </mxGeometry>
        </mxCell>
        <mxCell id="HTLDhF4H5GUMRBfZyY-d-42" value="" style="endArrow=none;html=1;rounded=0;" parent="1" edge="1">
          <mxGeometry width="50" height="50" relative="1" as="geometry">
            <mxPoint x="309.71" y="363" as="sourcePoint" />
            <mxPoint x="309.71" y="353" as="targetPoint" />
          </mxGeometry>
        </mxCell>
        <mxCell id="HTLDhF4H5GUMRBfZyY-d-45" value="" style="endArrow=none;html=1;rounded=0;" parent="1" edge="1">
          <mxGeometry width="50" height="50" relative="1" as="geometry">
            <mxPoint x="330" y="410" as="sourcePoint" />
            <mxPoint x="330" y="400" as="targetPoint" />
          </mxGeometry>
        </mxCell>
        <mxCell id="HTLDhF4H5GUMRBfZyY-d-74" style="edgeStyle=orthogonalEdgeStyle;rounded=0;orthogonalLoop=1;jettySize=auto;html=1;exitX=0;exitY=0;exitDx=140;exitDy=10;exitPerimeter=0;entryX=0;entryY=0;entryDx=10;entryDy=20.000000000000004;entryPerimeter=0;endArrow=none;endFill=0;" parent="1" source="HTLDhF4H5GUMRBfZyY-d-4" target="HTLDhF4H5GUMRBfZyY-d-8" edge="1">
          <mxGeometry relative="1" as="geometry">
            <Array as="points">
              <mxPoint x="440" y="384" />
              <mxPoint x="440" y="430" />
            </Array>
          </mxGeometry>
        </mxCell>
        <mxCell id="HTLDhF4H5GUMRBfZyY-d-4" value="" style="shape=cube;whiteSpace=wrap;html=1;boundedLbl=1;backgroundOutline=1;darkOpacity=0.05;darkOpacity2=0.1;" parent="1" vertex="1">
          <mxGeometry x="245" y="374" width="150" height="30" as="geometry" />
        </mxCell>
        <mxCell id="HTLDhF4H5GUMRBfZyY-d-43" value="" style="endArrow=none;html=1;rounded=0;" parent="1" edge="1">
          <mxGeometry width="50" height="50" relative="1" as="geometry">
            <mxPoint x="320.89" y="385" as="sourcePoint" />
            <mxPoint x="320.89" y="375" as="targetPoint" />
          </mxGeometry>
        </mxCell>
        <mxCell id="HTLDhF4H5GUMRBfZyY-d-75" style="edgeStyle=orthogonalEdgeStyle;rounded=0;orthogonalLoop=1;jettySize=auto;html=1;exitX=0;exitY=0;exitDx=90;exitDy=10;exitPerimeter=0;entryX=0.059;entryY=0.6;entryDx=0;entryDy=0;entryPerimeter=0;endArrow=none;endFill=0;" parent="1" source="HTLDhF4H5GUMRBfZyY-d-3" target="HTLDhF4H5GUMRBfZyY-d-7" edge="1">
          <mxGeometry relative="1" as="geometry">
            <Array as="points">
              <mxPoint x="440" y="357" />
              <mxPoint x="440" y="378" />
            </Array>
          </mxGeometry>
        </mxCell>
        <mxCell id="HTLDhF4H5GUMRBfZyY-d-3" value="" style="shape=cube;whiteSpace=wrap;html=1;boundedLbl=1;backgroundOutline=1;darkOpacity=0.05;darkOpacity2=0.1;" parent="1" vertex="1">
          <mxGeometry x="260" y="347" width="100" height="30" as="geometry" />
        </mxCell>
        <mxCell id="HTLDhF4H5GUMRBfZyY-d-46" value="" style="endArrow=none;html=1;rounded=0;" parent="1" edge="1">
          <mxGeometry width="50" height="50" relative="1" as="geometry">
            <mxPoint x="309.89" y="360" as="sourcePoint" />
            <mxPoint x="309.89" y="350" as="targetPoint" />
          </mxGeometry>
        </mxCell>
        <mxCell id="HTLDhF4H5GUMRBfZyY-d-2" value="" style="shape=cube;whiteSpace=wrap;html=1;boundedLbl=1;backgroundOutline=1;darkOpacity=0.05;darkOpacity2=0.1;" parent="1" vertex="1">
          <mxGeometry x="270" y="327" width="60" height="30" as="geometry" />
        </mxCell>
        <mxCell id="HTLDhF4H5GUMRBfZyY-d-69" style="edgeStyle=orthogonalEdgeStyle;rounded=0;orthogonalLoop=1;jettySize=auto;html=1;exitX=0;exitY=0;exitDx=90;exitDy=10;exitPerimeter=0;entryX=0;entryY=0;entryDx=10;entryDy=20;entryPerimeter=0;endArrow=none;endFill=0;" parent="1" source="HTLDhF4H5GUMRBfZyY-d-7" target="HTLDhF4H5GUMRBfZyY-d-10" edge="1">
          <mxGeometry relative="1" as="geometry">
            <Array as="points">
              <mxPoint x="630" y="370" />
              <mxPoint x="630" y="390" />
            </Array>
          </mxGeometry>
        </mxCell>
        <mxCell id="HTLDhF4H5GUMRBfZyY-d-7" value="" style="shape=cube;whiteSpace=wrap;html=1;boundedLbl=1;backgroundOutline=1;darkOpacity=0.05;darkOpacity2=0.1;" parent="1" vertex="1">
          <mxGeometry x="475" y="360" width="100" height="30" as="geometry" />
        </mxCell>
        <mxCell id="HTLDhF4H5GUMRBfZyY-d-47" value="" style="endArrow=none;html=1;rounded=0;" parent="1" edge="1">
          <mxGeometry width="50" height="50" relative="1" as="geometry">
            <mxPoint x="524.76" y="374" as="sourcePoint" />
            <mxPoint x="524.76" y="334" as="targetPoint" />
          </mxGeometry>
        </mxCell>
        <mxCell id="HTLDhF4H5GUMRBfZyY-d-68" style="edgeStyle=orthogonalEdgeStyle;rounded=0;orthogonalLoop=1;jettySize=auto;html=1;exitX=0;exitY=0;exitDx=50;exitDy=10;exitPerimeter=0;entryX=0;entryY=0;entryDx=10;entryDy=20;entryPerimeter=0;endArrow=none;endFill=0;" parent="1" source="HTLDhF4H5GUMRBfZyY-d-6" target="HTLDhF4H5GUMRBfZyY-d-9" edge="1">
          <mxGeometry relative="1" as="geometry">
            <Array as="points">
              <mxPoint x="630" y="327" />
              <mxPoint x="630" y="350" />
            </Array>
          </mxGeometry>
        </mxCell>
        <mxCell id="HTLDhF4H5GUMRBfZyY-d-6" value="" style="shape=cube;whiteSpace=wrap;html=1;boundedLbl=1;backgroundOutline=1;darkOpacity=0.05;darkOpacity2=0.1;" parent="1" vertex="1">
          <mxGeometry x="485" y="317" width="60" height="30" as="geometry" />
        </mxCell>
        <mxCell id="HTLDhF4H5GUMRBfZyY-d-70" value="" style="endArrow=none;html=1;rounded=0;exitX=0;exitY=0;exitDx=140;exitDy=10;exitPerimeter=0;entryX=0;entryY=0;entryDx=0;entryDy=10;entryPerimeter=0;" parent="1" source="HTLDhF4H5GUMRBfZyY-d-8" target="HTLDhF4H5GUMRBfZyY-d-11" edge="1">
          <mxGeometry width="50" height="50" relative="1" as="geometry">
            <mxPoint x="640" y="480" as="sourcePoint" />
            <mxPoint x="690" y="430" as="targetPoint" />
          </mxGeometry>
        </mxCell>
        <mxCell id="HTLDhF4H5GUMRBfZyY-d-72" value="" style="shape=cube;whiteSpace=wrap;html=1;boundedLbl=1;backgroundOutline=1;darkOpacity=0.05;darkOpacity2=0.1;fillColor=#f8cecc;strokeColor=#b85450;" parent="1" vertex="1">
          <mxGeometry x="715" y="410" width="20" height="10" as="geometry" />
        </mxCell>
        <mxCell id="HTLDhF4H5GUMRBfZyY-d-73" value="" style="endArrow=none;html=1;rounded=0;" parent="1" edge="1">
          <mxGeometry width="50" height="50" relative="1" as="geometry">
            <mxPoint x="714.8900000000001" y="375" as="sourcePoint" />
            <mxPoint x="714.7800000000001" y="360" as="targetPoint" />
          </mxGeometry>
        </mxCell>
        <mxCell id="HTLDhF4H5GUMRBfZyY-d-77" value="" style="rounded=0;whiteSpace=wrap;html=1;dashed=1;dashPattern=8 8;fillColor=none;" parent="1" vertex="1">
          <mxGeometry x="230" y="300" width="190" height="150" as="geometry" />
        </mxCell>
        <mxCell id="HTLDhF4H5GUMRBfZyY-d-78" value="" style="rounded=0;whiteSpace=wrap;html=1;dashed=1;dashPattern=8 8;fillColor=none;" parent="1" vertex="1">
          <mxGeometry x="450" y="300" width="160" height="150" as="geometry" />
        </mxCell>
        <mxCell id="HTLDhF4H5GUMRBfZyY-d-79" value="" style="rounded=0;whiteSpace=wrap;html=1;dashed=1;dashPattern=8 8;fillColor=none;" parent="1" vertex="1">
          <mxGeometry x="635" y="300" width="160" height="150" as="geometry" />
        </mxCell>
        <mxCell id="HTLDhF4H5GUMRBfZyY-d-80" value="Input" style="text;html=1;strokeColor=none;fillColor=none;align=center;verticalAlign=middle;whiteSpace=wrap;rounded=0;" parent="1" vertex="1">
          <mxGeometry x="95" y="270" width="60" height="30" as="geometry" />
        </mxCell>
        <mxCell id="HTLDhF4H5GUMRBfZyY-d-81" value="Backbone" style="text;html=1;strokeColor=none;fillColor=none;align=center;verticalAlign=middle;whiteSpace=wrap;rounded=0;" parent="1" vertex="1">
          <mxGeometry x="295" y="270" width="60" height="30" as="geometry" />
        </mxCell>
        <mxCell id="HTLDhF4H5GUMRBfZyY-d-82" value="Neck" style="text;html=1;strokeColor=none;fillColor=none;align=center;verticalAlign=middle;whiteSpace=wrap;rounded=0;" parent="1" vertex="1">
          <mxGeometry x="495" y="270" width="60" height="30" as="geometry" />
        </mxCell>
        <mxCell id="HTLDhF4H5GUMRBfZyY-d-83" value="Head" style="text;html=1;strokeColor=none;fillColor=none;align=center;verticalAlign=middle;whiteSpace=wrap;rounded=0;" parent="1" vertex="1">
          <mxGeometry x="675" y="270" width="60" height="30" as="geometry" />
        </mxCell>
      </root>
    </mxGraphModel>
  </diagram>
  <diagram id="lO7e1J5atBu6srb2zUKA" name="Page-2">
    <mxGraphModel dx="731" dy="782" grid="1" gridSize="10" guides="1" tooltips="1" connect="1" arrows="1" fold="1" page="1" pageScale="1" pageWidth="850" pageHeight="1100" math="0" shadow="0">
      <root>
        <mxCell id="0" />
        <mxCell id="1" parent="0" />
        <mxCell id="OBBYOuydcJ9LyXSTOmE8-13" style="edgeStyle=orthogonalEdgeStyle;rounded=0;orthogonalLoop=1;jettySize=auto;html=1;exitX=0.5;exitY=1;exitDx=0;exitDy=0;entryX=0.5;entryY=0;entryDx=0;entryDy=0;" parent="1" source="OBBYOuydcJ9LyXSTOmE8-1" target="OBBYOuydcJ9LyXSTOmE8-2" edge="1">
          <mxGeometry relative="1" as="geometry" />
        </mxCell>
        <mxCell id="OBBYOuydcJ9LyXSTOmE8-1" value="3x3, 2c, 2c, 2" style="rounded=0;whiteSpace=wrap;html=1;" parent="1" vertex="1">
          <mxGeometry x="380" y="160" width="110" height="30" as="geometry" />
        </mxCell>
        <mxCell id="OBBYOuydcJ9LyXSTOmE8-14" style="edgeStyle=orthogonalEdgeStyle;rounded=0;orthogonalLoop=1;jettySize=auto;html=1;exitX=1;exitY=0.5;exitDx=0;exitDy=0;entryX=0.5;entryY=0;entryDx=0;entryDy=0;" parent="1" source="OBBYOuydcJ9LyXSTOmE8-2" target="OBBYOuydcJ9LyXSTOmE8-3" edge="1">
          <mxGeometry relative="1" as="geometry" />
        </mxCell>
        <mxCell id="OBBYOuydcJ9LyXSTOmE8-17" style="edgeStyle=orthogonalEdgeStyle;rounded=0;orthogonalLoop=1;jettySize=auto;html=1;exitX=0.5;exitY=1;exitDx=0;exitDy=0;entryX=0.666;entryY=-0.032;entryDx=0;entryDy=0;entryPerimeter=0;" parent="1" source="OBBYOuydcJ9LyXSTOmE8-2" target="OBBYOuydcJ9LyXSTOmE8-5" edge="1">
          <mxGeometry relative="1" as="geometry">
            <Array as="points">
              <mxPoint x="435" y="340" />
              <mxPoint x="517" y="340" />
            </Array>
          </mxGeometry>
        </mxCell>
        <mxCell id="OBBYOuydcJ9LyXSTOmE8-2" value="3x3, 2c, 2c, 2" style="rounded=0;whiteSpace=wrap;html=1;" parent="1" vertex="1">
          <mxGeometry x="380" y="220" width="110" height="30" as="geometry" />
        </mxCell>
        <mxCell id="OBBYOuydcJ9LyXSTOmE8-15" style="edgeStyle=orthogonalEdgeStyle;rounded=0;orthogonalLoop=1;jettySize=auto;html=1;exitX=0.5;exitY=1;exitDx=0;exitDy=0;entryX=0.5;entryY=0;entryDx=0;entryDy=0;" parent="1" source="OBBYOuydcJ9LyXSTOmE8-3" target="OBBYOuydcJ9LyXSTOmE8-4" edge="1">
          <mxGeometry relative="1" as="geometry" />
        </mxCell>
        <mxCell id="OBBYOuydcJ9LyXSTOmE8-3" value="3x3, 2c, 2c, 2" style="rounded=0;whiteSpace=wrap;html=1;" parent="1" vertex="1">
          <mxGeometry x="520" y="280" width="110" height="30" as="geometry" />
        </mxCell>
        <mxCell id="OBBYOuydcJ9LyXSTOmE8-16" style="edgeStyle=orthogonalEdgeStyle;rounded=0;orthogonalLoop=1;jettySize=auto;html=1;exitX=0.5;exitY=1;exitDx=0;exitDy=0;entryX=0.846;entryY=0;entryDx=0;entryDy=0;entryPerimeter=0;" parent="1" source="OBBYOuydcJ9LyXSTOmE8-4" target="OBBYOuydcJ9LyXSTOmE8-5" edge="1">
          <mxGeometry relative="1" as="geometry">
            <Array as="points">
              <mxPoint x="575" y="380" />
              <mxPoint x="540" y="380" />
            </Array>
          </mxGeometry>
        </mxCell>
        <mxCell id="OBBYOuydcJ9LyXSTOmE8-4" value="3x3, 2c, 2c, 2" style="rounded=0;whiteSpace=wrap;html=1;" parent="1" vertex="1">
          <mxGeometry x="520" y="340" width="110" height="30" as="geometry" />
        </mxCell>
        <mxCell id="OBBYOuydcJ9LyXSTOmE8-22" style="edgeStyle=orthogonalEdgeStyle;rounded=0;orthogonalLoop=1;jettySize=auto;html=1;entryX=0.654;entryY=-0.005;entryDx=0;entryDy=0;entryPerimeter=0;" parent="1" source="OBBYOuydcJ9LyXSTOmE8-5" target="OBBYOuydcJ9LyXSTOmE8-7" edge="1">
          <mxGeometry relative="1" as="geometry" />
        </mxCell>
        <mxCell id="OBBYOuydcJ9LyXSTOmE8-5" value="4c" style="rounded=0;whiteSpace=wrap;html=1;" parent="1" vertex="1">
          <mxGeometry x="430" y="400" width="130" height="30" as="geometry" />
        </mxCell>
        <mxCell id="OBBYOuydcJ9LyXSTOmE8-23" style="edgeStyle=orthogonalEdgeStyle;rounded=0;orthogonalLoop=1;jettySize=auto;html=1;entryX=0.164;entryY=0.014;entryDx=0;entryDy=0;entryPerimeter=0;" parent="1" source="OBBYOuydcJ9LyXSTOmE8-6" target="OBBYOuydcJ9LyXSTOmE8-7" edge="1">
          <mxGeometry relative="1" as="geometry" />
        </mxCell>
        <mxCell id="OBBYOuydcJ9LyXSTOmE8-6" value="4c" style="rounded=0;whiteSpace=wrap;html=1;" parent="1" vertex="1">
          <mxGeometry x="240" y="400" width="130" height="30" as="geometry" />
        </mxCell>
        <mxCell id="OBBYOuydcJ9LyXSTOmE8-20" style="edgeStyle=orthogonalEdgeStyle;rounded=0;orthogonalLoop=1;jettySize=auto;html=1;exitX=0.5;exitY=1;exitDx=0;exitDy=0;entryX=0.5;entryY=0;entryDx=0;entryDy=0;" parent="1" source="OBBYOuydcJ9LyXSTOmE8-7" target="OBBYOuydcJ9LyXSTOmE8-8" edge="1">
          <mxGeometry relative="1" as="geometry" />
        </mxCell>
        <mxCell id="OBBYOuydcJ9LyXSTOmE8-7" value="1x1, 8c, 2c, 2" style="rounded=0;whiteSpace=wrap;html=1;" parent="1" vertex="1">
          <mxGeometry x="240" y="460" width="390" height="30" as="geometry" />
        </mxCell>
        <mxCell id="OBBYOuydcJ9LyXSTOmE8-21" style="edgeStyle=orthogonalEdgeStyle;rounded=0;orthogonalLoop=1;jettySize=auto;html=1;exitX=0.5;exitY=1;exitDx=0;exitDy=0;" parent="1" source="OBBYOuydcJ9LyXSTOmE8-8" edge="1">
          <mxGeometry relative="1" as="geometry">
            <mxPoint x="435" y="560" as="targetPoint" />
          </mxGeometry>
        </mxCell>
        <mxCell id="OBBYOuydcJ9LyXSTOmE8-8" value="c" style="rounded=0;whiteSpace=wrap;html=1;" parent="1" vertex="1">
          <mxGeometry x="240" y="510" width="390" height="30" as="geometry" />
        </mxCell>
        <mxCell id="OBBYOuydcJ9LyXSTOmE8-12" style="edgeStyle=orthogonalEdgeStyle;rounded=0;orthogonalLoop=1;jettySize=auto;html=1;exitX=1;exitY=0.5;exitDx=0;exitDy=0;entryX=0.5;entryY=0;entryDx=0;entryDy=0;" parent="1" source="OBBYOuydcJ9LyXSTOmE8-9" target="OBBYOuydcJ9LyXSTOmE8-1" edge="1">
          <mxGeometry relative="1" as="geometry" />
        </mxCell>
        <mxCell id="OBBYOuydcJ9LyXSTOmE8-18" style="edgeStyle=orthogonalEdgeStyle;rounded=0;orthogonalLoop=1;jettySize=auto;html=1;exitX=0.75;exitY=1;exitDx=0;exitDy=0;entryX=0.5;entryY=0;entryDx=0;entryDy=0;" parent="1" source="OBBYOuydcJ9LyXSTOmE8-9" target="OBBYOuydcJ9LyXSTOmE8-5" edge="1">
          <mxGeometry relative="1" as="geometry">
            <Array as="points">
              <mxPoint x="330" y="360" />
              <mxPoint x="495" y="360" />
            </Array>
          </mxGeometry>
        </mxCell>
        <mxCell id="OBBYOuydcJ9LyXSTOmE8-19" style="edgeStyle=orthogonalEdgeStyle;rounded=0;orthogonalLoop=1;jettySize=auto;html=1;exitX=0.25;exitY=1;exitDx=0;exitDy=0;entryX=0.25;entryY=0;entryDx=0;entryDy=0;" parent="1" source="OBBYOuydcJ9LyXSTOmE8-9" target="OBBYOuydcJ9LyXSTOmE8-5" edge="1">
          <mxGeometry relative="1" as="geometry">
            <Array as="points">
              <mxPoint x="270" y="370" />
              <mxPoint x="462" y="370" />
            </Array>
          </mxGeometry>
        </mxCell>
        <mxCell id="OBBYOuydcJ9LyXSTOmE8-9" value="2c partial 2c" style="rounded=0;whiteSpace=wrap;html=1;fillColor=none;strokeColor=none;" parent="1" vertex="1">
          <mxGeometry x="240" y="100" width="120" height="30" as="geometry" />
        </mxCell>
        <mxCell id="OBBYOuydcJ9LyXSTOmE8-24" value="" style="endArrow=classic;html=1;rounded=0;entryX=0.385;entryY=-0.073;entryDx=0;entryDy=0;entryPerimeter=0;" parent="1" target="OBBYOuydcJ9LyXSTOmE8-6" edge="1">
          <mxGeometry width="50" height="50" relative="1" as="geometry">
            <mxPoint x="270" y="370" as="sourcePoint" />
            <mxPoint x="480" y="330" as="targetPoint" />
            <Array as="points">
              <mxPoint x="290" y="370" />
            </Array>
          </mxGeometry>
        </mxCell>
        <mxCell id="OBBYOuydcJ9LyXSTOmE8-25" value="" style="endArrow=classic;html=1;rounded=0;entryX=0.535;entryY=-0.02;entryDx=0;entryDy=0;entryPerimeter=0;" parent="1" target="OBBYOuydcJ9LyXSTOmE8-6" edge="1">
          <mxGeometry width="50" height="50" relative="1" as="geometry">
            <mxPoint x="330" y="360" as="sourcePoint" />
            <mxPoint x="410" y="330" as="targetPoint" />
            <Array as="points">
              <mxPoint x="310" y="360" />
            </Array>
          </mxGeometry>
        </mxCell>
        <mxCell id="OBBYOuydcJ9LyXSTOmE8-26" value="" style="endArrow=classic;html=1;rounded=0;entryX=0.769;entryY=0;entryDx=0;entryDy=0;entryPerimeter=0;" parent="1" target="OBBYOuydcJ9LyXSTOmE8-6" edge="1">
          <mxGeometry width="50" height="50" relative="1" as="geometry">
            <mxPoint x="440" y="340" as="sourcePoint" />
            <mxPoint x="380" y="300" as="targetPoint" />
            <Array as="points">
              <mxPoint x="340" y="340" />
            </Array>
          </mxGeometry>
        </mxCell>
        <mxCell id="OBBYOuydcJ9LyXSTOmE8-27" value="" style="endArrow=classic;html=1;rounded=0;entryX=0.923;entryY=0;entryDx=0;entryDy=0;entryPerimeter=0;" parent="1" target="OBBYOuydcJ9LyXSTOmE8-6" edge="1">
          <mxGeometry width="50" height="50" relative="1" as="geometry">
            <mxPoint x="540" y="380" as="sourcePoint" />
            <mxPoint x="450" y="340" as="targetPoint" />
            <Array as="points">
              <mxPoint x="360" y="380" />
            </Array>
          </mxGeometry>
        </mxCell>
        <mxCell id="OBBYOuydcJ9LyXSTOmE8-28" value="Expand cardinality" style="text;html=1;strokeColor=none;fillColor=none;align=center;verticalAlign=middle;whiteSpace=wrap;rounded=0;" parent="1" vertex="1">
          <mxGeometry x="440" y="110" width="60" height="30" as="geometry" />
        </mxCell>
        <mxCell id="OBBYOuydcJ9LyXSTOmE8-29" value="Shuffle cardinality" style="text;html=1;strokeColor=none;fillColor=none;align=center;verticalAlign=middle;whiteSpace=wrap;rounded=0;" parent="1" vertex="1">
          <mxGeometry x="566" y="380" width="60" height="30" as="geometry" />
        </mxCell>
        <mxCell id="OBBYOuydcJ9LyXSTOmE8-30" value="Merge cardinality" style="text;html=1;strokeColor=none;fillColor=none;align=center;verticalAlign=middle;whiteSpace=wrap;rounded=0;" parent="1" vertex="1">
          <mxGeometry x="425" y="485" width="130" height="30" as="geometry" />
        </mxCell>
        <mxCell id="OBBYOuydcJ9LyXSTOmE8-31" value="cross stage connection" style="text;html=1;strokeColor=none;fillColor=none;align=center;verticalAlign=middle;whiteSpace=wrap;rounded=0;rotation=-90;" parent="1" vertex="1">
          <mxGeometry x="190" y="230" width="130" height="30" as="geometry" />
        </mxCell>
        <mxCell id="OBBYOuydcJ9LyXSTOmE8-32" value="Stack in computational block" style="text;html=1;strokeColor=none;fillColor=none;align=center;verticalAlign=middle;whiteSpace=wrap;rounded=0;rotation=-90;" parent="1" vertex="1">
          <mxGeometry x="225" y="228" width="190" height="30" as="geometry" />
        </mxCell>
        <mxCell id="OBBYOuydcJ9LyXSTOmE8-33" value="c" style="text;html=1;strokeColor=none;fillColor=none;align=center;verticalAlign=middle;whiteSpace=wrap;rounded=0;" parent="1" vertex="1">
          <mxGeometry x="405" y="560" width="60" height="30" as="geometry" />
        </mxCell>
      </root>
    </mxGraphModel>
  </diagram>
  <diagram id="bmKNfA_BS79e42TrnsJZ" name="Page-3">
    <mxGraphModel dx="731" dy="782" grid="1" gridSize="10" guides="1" tooltips="1" connect="1" arrows="1" fold="1" page="1" pageScale="1" pageWidth="850" pageHeight="1100" math="0" shadow="0">
      <root>
        <mxCell id="0" />
        <mxCell id="1" parent="0" />
        <mxCell id="EkrBvzONqK6oopWgtboz-1" value="" style="shape=cube;whiteSpace=wrap;html=1;boundedLbl=1;backgroundOutline=1;darkOpacity=0.05;darkOpacity2=0.1;" parent="1" vertex="1">
          <mxGeometry x="160" y="160" width="40" height="80" as="geometry" />
        </mxCell>
        <mxCell id="EkrBvzONqK6oopWgtboz-11" style="edgeStyle=orthogonalEdgeStyle;rounded=0;orthogonalLoop=1;jettySize=auto;html=1;exitX=0;exitY=0;exitDx=40;exitDy=50;exitPerimeter=0;entryX=0;entryY=0;entryDx=30;entryDy=80;entryPerimeter=0;endArrow=none;endFill=0;" parent="1" source="EkrBvzONqK6oopWgtboz-2" target="EkrBvzONqK6oopWgtboz-5" edge="1">
          <mxGeometry relative="1" as="geometry" />
        </mxCell>
        <mxCell id="EkrBvzONqK6oopWgtboz-2" value="" style="shape=cube;whiteSpace=wrap;html=1;boundedLbl=1;backgroundOutline=1;darkOpacity=0.05;darkOpacity2=0.1;" parent="1" vertex="1">
          <mxGeometry x="160" y="330" width="40" height="80" as="geometry" />
        </mxCell>
        <mxCell id="EkrBvzONqK6oopWgtboz-3" value="" style="shape=cube;whiteSpace=wrap;html=1;boundedLbl=1;backgroundOutline=1;darkOpacity=0.05;darkOpacity2=0.1;" parent="1" vertex="1">
          <mxGeometry x="370" y="160" width="90" height="80" as="geometry" />
        </mxCell>
        <mxCell id="EkrBvzONqK6oopWgtboz-12" style="edgeStyle=orthogonalEdgeStyle;rounded=0;orthogonalLoop=1;jettySize=auto;html=1;exitX=0;exitY=0;exitDx=40;exitDy=50;exitPerimeter=0;entryX=0;entryY=0;entryDx=20;entryDy=0;entryPerimeter=0;endArrow=none;endFill=0;" parent="1" source="EkrBvzONqK6oopWgtboz-4" target="EkrBvzONqK6oopWgtboz-6" edge="1">
          <mxGeometry relative="1" as="geometry">
            <Array as="points">
              <mxPoint x="710" y="210" />
              <mxPoint x="710" y="280" />
            </Array>
          </mxGeometry>
        </mxCell>
        <mxCell id="EkrBvzONqK6oopWgtboz-4" value="" style="shape=cube;whiteSpace=wrap;html=1;boundedLbl=1;backgroundOutline=1;darkOpacity=0.05;darkOpacity2=0.1;" parent="1" vertex="1">
          <mxGeometry x="560" y="160" width="40" height="80" as="geometry" />
        </mxCell>
        <mxCell id="EkrBvzONqK6oopWgtboz-6" value="" style="shape=cube;whiteSpace=wrap;html=1;boundedLbl=1;backgroundOutline=1;darkOpacity=0.05;darkOpacity2=0.1;" parent="1" vertex="1">
          <mxGeometry x="700" y="280" width="40" height="80" as="geometry" />
        </mxCell>
        <mxCell id="EkrBvzONqK6oopWgtboz-5" value="" style="shape=cube;whiteSpace=wrap;html=1;boundedLbl=1;backgroundOutline=1;darkOpacity=0.05;darkOpacity2=0.1;" parent="1" vertex="1">
          <mxGeometry x="680" y="280" width="40" height="80" as="geometry" />
        </mxCell>
        <mxCell id="EkrBvzONqK6oopWgtboz-7" value="" style="shape=cube;whiteSpace=wrap;html=1;boundedLbl=1;backgroundOutline=1;darkOpacity=0.05;darkOpacity2=0.1;" parent="1" vertex="1">
          <mxGeometry x="784" y="305" width="90" height="50" as="geometry" />
        </mxCell>
        <mxCell id="EkrBvzONqK6oopWgtboz-8" value="" style="endArrow=none;html=1;rounded=0;" parent="1" edge="1">
          <mxGeometry width="50" height="50" relative="1" as="geometry">
            <mxPoint x="60" y="290" as="sourcePoint" />
            <mxPoint x="170" y="190" as="targetPoint" />
          </mxGeometry>
        </mxCell>
        <mxCell id="EkrBvzONqK6oopWgtboz-9" value="" style="endArrow=none;html=1;rounded=0;" parent="1" target="EkrBvzONqK6oopWgtboz-2" edge="1">
          <mxGeometry width="50" height="50" relative="1" as="geometry">
            <mxPoint x="60" y="290" as="sourcePoint" />
            <mxPoint x="170" y="190" as="targetPoint" />
          </mxGeometry>
        </mxCell>
        <mxCell id="EkrBvzONqK6oopWgtboz-13" value="" style="endArrow=none;html=1;rounded=0;entryX=0.5;entryY=0.625;entryDx=0;entryDy=0;entryPerimeter=0;" parent="1" edge="1">
          <mxGeometry width="50" height="50" relative="1" as="geometry">
            <mxPoint x="460" y="210" as="sourcePoint" />
            <mxPoint x="568" y="210" as="targetPoint" />
          </mxGeometry>
        </mxCell>
        <mxCell id="EkrBvzONqK6oopWgtboz-15" style="edgeStyle=orthogonalEdgeStyle;rounded=0;orthogonalLoop=1;jettySize=auto;html=1;exitX=0;exitY=0.5;exitDx=0;exitDy=0;entryX=1.038;entryY=0.495;entryDx=0;entryDy=0;entryPerimeter=0;endArrow=none;endFill=0;" parent="1" source="EkrBvzONqK6oopWgtboz-14" target="EkrBvzONqK6oopWgtboz-1" edge="1">
          <mxGeometry relative="1" as="geometry" />
        </mxCell>
        <mxCell id="EkrBvzONqK6oopWgtboz-16" style="edgeStyle=orthogonalEdgeStyle;rounded=0;orthogonalLoop=1;jettySize=auto;html=1;exitX=1;exitY=0.5;exitDx=0;exitDy=0;entryX=0.111;entryY=0.504;entryDx=0;entryDy=0;entryPerimeter=0;endArrow=none;endFill=0;" parent="1" source="EkrBvzONqK6oopWgtboz-14" target="EkrBvzONqK6oopWgtboz-3" edge="1">
          <mxGeometry relative="1" as="geometry" />
        </mxCell>
        <mxCell id="EkrBvzONqK6oopWgtboz-17" style="edgeStyle=orthogonalEdgeStyle;rounded=0;orthogonalLoop=1;jettySize=auto;html=1;exitX=0.5;exitY=0;exitDx=0;exitDy=0;entryX=0.48;entryY=-0.013;entryDx=0;entryDy=0;entryPerimeter=0;endArrow=none;endFill=0;" parent="1" source="EkrBvzONqK6oopWgtboz-14" target="EkrBvzONqK6oopWgtboz-3" edge="1">
          <mxGeometry relative="1" as="geometry" />
        </mxCell>
        <mxCell id="EkrBvzONqK6oopWgtboz-14" value="..." style="text;html=1;strokeColor=none;fillColor=none;align=center;verticalAlign=middle;whiteSpace=wrap;rounded=0;fontSize=31;" parent="1" vertex="1">
          <mxGeometry x="260" y="185" width="60" height="30" as="geometry" />
        </mxCell>
        <mxCell id="EkrBvzONqK6oopWgtboz-18" value="" style="endArrow=none;dashed=1;html=1;dashPattern=1 3;strokeWidth=2;rounded=0;fontColor=#FF66B3;labelBackgroundColor=#FF99CC;strokeColor=#66B2FF;" parent="1" edge="1">
          <mxGeometry width="50" height="50" relative="1" as="geometry">
            <mxPoint x="100" y="430" as="sourcePoint" />
            <mxPoint x="100" y="100" as="targetPoint" />
          </mxGeometry>
        </mxCell>
        <mxCell id="EkrBvzONqK6oopWgtboz-19" value="" style="endArrow=none;dashed=1;html=1;dashPattern=1 3;strokeWidth=2;rounded=0;fontColor=#FF66B3;labelBackgroundColor=#FF99CC;strokeColor=#66B2FF;" parent="1" edge="1">
          <mxGeometry width="50" height="50" relative="1" as="geometry">
            <mxPoint x="240" y="430" as="sourcePoint" />
            <mxPoint x="240" y="100" as="targetPoint" />
          </mxGeometry>
        </mxCell>
        <mxCell id="EkrBvzONqK6oopWgtboz-20" value="" style="endArrow=none;dashed=1;html=1;dashPattern=1 3;strokeWidth=2;rounded=0;fontColor=#FF66B3;labelBackgroundColor=#FF99CC;strokeColor=#66B2FF;" parent="1" edge="1">
          <mxGeometry width="50" height="50" relative="1" as="geometry">
            <mxPoint x="520" y="270" as="sourcePoint" />
            <mxPoint x="520" y="100" as="targetPoint" />
          </mxGeometry>
        </mxCell>
        <mxCell id="EkrBvzONqK6oopWgtboz-21" value="" style="endArrow=none;dashed=1;html=1;dashPattern=1 3;strokeWidth=2;rounded=0;fontColor=#FF66B3;labelBackgroundColor=#FF99CC;strokeColor=#66B2FF;" parent="1" edge="1">
          <mxGeometry width="50" height="50" relative="1" as="geometry">
            <mxPoint x="640" y="270" as="sourcePoint" />
            <mxPoint x="640" y="100" as="targetPoint" />
          </mxGeometry>
        </mxCell>
        <mxCell id="EkrBvzONqK6oopWgtboz-22" style="edgeStyle=none;rounded=0;orthogonalLoop=1;jettySize=auto;html=1;endArrow=none;endFill=0;" parent="1" edge="1">
          <mxGeometry relative="1" as="geometry">
            <mxPoint x="792" y="329.9999999999999" as="targetPoint" />
            <mxPoint x="740" y="330" as="sourcePoint" />
          </mxGeometry>
        </mxCell>
        <mxCell id="EkrBvzONqK6oopWgtboz-23" value="" style="endArrow=none;html=1;rounded=0;" parent="1" edge="1">
          <mxGeometry width="50" height="50" relative="1" as="geometry">
            <mxPoint x="875" y="330" as="sourcePoint" />
            <mxPoint x="905" y="330" as="targetPoint" />
          </mxGeometry>
        </mxCell>
        <mxCell id="EkrBvzONqK6oopWgtboz-24" value="" style="endArrow=none;dashed=1;html=1;dashPattern=1 3;strokeWidth=2;rounded=0;fontColor=#FF66B3;labelBackgroundColor=#FF99CC;strokeColor=#66B2FF;" parent="1" edge="1">
          <mxGeometry width="50" height="50" relative="1" as="geometry">
            <mxPoint x="770" y="415" as="sourcePoint" />
            <mxPoint x="770" y="185" as="targetPoint" />
          </mxGeometry>
        </mxCell>
        <mxCell id="EkrBvzONqK6oopWgtboz-25" value="" style="endArrow=none;dashed=1;html=1;dashPattern=1 3;strokeWidth=2;rounded=0;fontColor=#FF66B3;labelBackgroundColor=#FF99CC;strokeColor=#66B2FF;" parent="1" edge="1">
          <mxGeometry width="50" height="50" relative="1" as="geometry">
            <mxPoint x="890" y="415" as="sourcePoint" />
            <mxPoint x="890" y="185" as="targetPoint" />
          </mxGeometry>
        </mxCell>
        <mxCell id="EkrBvzONqK6oopWgtboz-26" value="Transition&lt;br&gt;Scaling up width" style="text;html=1;strokeColor=none;fillColor=none;align=center;verticalAlign=middle;whiteSpace=wrap;rounded=0;" parent="1" vertex="1">
          <mxGeometry x="770" y="359" width="130" height="30" as="geometry" />
        </mxCell>
        <mxCell id="EkrBvzONqK6oopWgtboz-27" value="Transition&lt;br&gt;Scaling up width" style="text;html=1;strokeColor=none;fillColor=none;align=center;verticalAlign=middle;whiteSpace=wrap;rounded=0;" parent="1" vertex="1">
          <mxGeometry x="515" y="250" width="130" height="30" as="geometry" />
        </mxCell>
        <mxCell id="EkrBvzONqK6oopWgtboz-28" value="Computational block&lt;br&gt;Scaling up depth" style="text;html=1;strokeColor=none;fillColor=none;align=center;verticalAlign=middle;whiteSpace=wrap;rounded=0;" parent="1" vertex="1">
          <mxGeometry x="240" y="240" width="130" height="30" as="geometry" />
        </mxCell>
        <mxCell id="EkrBvzONqK6oopWgtboz-29" value="Partial&lt;br&gt;Scaling up width" style="text;html=1;strokeColor=none;fillColor=none;align=center;verticalAlign=middle;whiteSpace=wrap;rounded=0;" parent="1" vertex="1">
          <mxGeometry x="100" y="420" width="130" height="30" as="geometry" />
        </mxCell>
        <mxCell id="EkrBvzONqK6oopWgtboz-30" value="Cross Stage Merge" style="text;html=1;strokeColor=none;fillColor=none;align=center;verticalAlign=middle;whiteSpace=wrap;rounded=0;" parent="1" vertex="1">
          <mxGeometry x="360" y="390" width="185" height="30" as="geometry" />
        </mxCell>
      </root>
    </mxGraphModel>
  </diagram>
  <diagram id="dHttkYZ300h-UVXb8kaG" name="Page-4">
    <mxGraphModel dx="1218" dy="1303" grid="1" gridSize="10" guides="1" tooltips="1" connect="1" arrows="1" fold="1" page="1" pageScale="1" pageWidth="850" pageHeight="1100" math="0" shadow="0">
      <root>
        <mxCell id="0" />
        <mxCell id="1" parent="0" />
        <mxCell id="V0e_SLqA4O8Yh9gC9CsA-40" style="edgeStyle=orthogonalEdgeStyle;rounded=0;orthogonalLoop=1;jettySize=auto;html=1;exitX=1;exitY=0.5;exitDx=0;exitDy=0;entryX=0;entryY=0.5;entryDx=0;entryDy=0;" edge="1" parent="1" source="V0e_SLqA4O8Yh9gC9CsA-4" target="V0e_SLqA4O8Yh9gC9CsA-6">
          <mxGeometry relative="1" as="geometry" />
        </mxCell>
        <mxCell id="V0e_SLqA4O8Yh9gC9CsA-4" value="" style="rounded=0;whiteSpace=wrap;html=1;fillColor=#0050ef;fontColor=#ffffff;strokeColor=#001DBC;" vertex="1" parent="1">
          <mxGeometry x="91" y="130" width="100" height="110" as="geometry" />
        </mxCell>
        <mxCell id="V0e_SLqA4O8Yh9gC9CsA-3" value="" style="rounded=0;whiteSpace=wrap;html=1;fillColor=#008a00;fontColor=#ffffff;strokeColor=#005700;" vertex="1" parent="1">
          <mxGeometry x="80" y="140" width="100" height="110" as="geometry" />
        </mxCell>
        <mxCell id="V0e_SLqA4O8Yh9gC9CsA-2" value="" style="rounded=0;whiteSpace=wrap;html=1;fillColor=#a20025;fontColor=#ffffff;strokeColor=#6F0000;" vertex="1" parent="1">
          <mxGeometry x="69" y="151" width="100" height="110" as="geometry" />
        </mxCell>
        <mxCell id="V0e_SLqA4O8Yh9gC9CsA-5" value="640 x 640 x 3" style="text;html=1;strokeColor=none;fillColor=none;align=center;verticalAlign=middle;whiteSpace=wrap;rounded=0;" vertex="1" parent="1">
          <mxGeometry x="69" y="280" width="100" height="30" as="geometry" />
        </mxCell>
        <mxCell id="V0e_SLqA4O8Yh9gC9CsA-15" style="edgeStyle=orthogonalEdgeStyle;rounded=0;orthogonalLoop=1;jettySize=auto;html=1;exitX=1;exitY=0.5;exitDx=0;exitDy=0;" edge="1" parent="1" source="V0e_SLqA4O8Yh9gC9CsA-6" target="V0e_SLqA4O8Yh9gC9CsA-7">
          <mxGeometry relative="1" as="geometry" />
        </mxCell>
        <mxCell id="V0e_SLqA4O8Yh9gC9CsA-6" value="BConv" style="rounded=1;whiteSpace=wrap;html=1;" vertex="1" parent="1">
          <mxGeometry x="230" y="150" width="60" height="70" as="geometry" />
        </mxCell>
        <mxCell id="V0e_SLqA4O8Yh9gC9CsA-16" style="edgeStyle=orthogonalEdgeStyle;rounded=0;orthogonalLoop=1;jettySize=auto;html=1;exitX=1;exitY=0.5;exitDx=0;exitDy=0;entryX=0;entryY=0.5;entryDx=0;entryDy=0;" edge="1" parent="1" source="V0e_SLqA4O8Yh9gC9CsA-7" target="V0e_SLqA4O8Yh9gC9CsA-8">
          <mxGeometry relative="1" as="geometry" />
        </mxCell>
        <mxCell id="V0e_SLqA4O8Yh9gC9CsA-7" value="BConv" style="rounded=1;whiteSpace=wrap;html=1;" vertex="1" parent="1">
          <mxGeometry x="323" y="150" width="60" height="70" as="geometry" />
        </mxCell>
        <mxCell id="V0e_SLqA4O8Yh9gC9CsA-17" style="edgeStyle=orthogonalEdgeStyle;rounded=0;orthogonalLoop=1;jettySize=auto;html=1;exitX=1;exitY=0.5;exitDx=0;exitDy=0;" edge="1" parent="1" source="V0e_SLqA4O8Yh9gC9CsA-8">
          <mxGeometry relative="1" as="geometry">
            <mxPoint x="510" y="184.66666666666674" as="targetPoint" />
          </mxGeometry>
        </mxCell>
        <mxCell id="V0e_SLqA4O8Yh9gC9CsA-8" value="BConv" style="rounded=1;whiteSpace=wrap;html=1;" vertex="1" parent="1">
          <mxGeometry x="418" y="150" width="60" height="70" as="geometry" />
        </mxCell>
        <mxCell id="V0e_SLqA4O8Yh9gC9CsA-18" style="edgeStyle=orthogonalEdgeStyle;rounded=0;orthogonalLoop=1;jettySize=auto;html=1;exitX=1;exitY=0.5;exitDx=0;exitDy=0;entryX=0;entryY=0.5;entryDx=0;entryDy=0;" edge="1" parent="1" source="V0e_SLqA4O8Yh9gC9CsA-9" target="V0e_SLqA4O8Yh9gC9CsA-12">
          <mxGeometry relative="1" as="geometry" />
        </mxCell>
        <mxCell id="V0e_SLqA4O8Yh9gC9CsA-9" value="BConv" style="rounded=1;whiteSpace=wrap;html=1;" vertex="1" parent="1">
          <mxGeometry x="513" y="150" width="60" height="70" as="geometry" />
        </mxCell>
        <mxCell id="V0e_SLqA4O8Yh9gC9CsA-11" style="edgeStyle=orthogonalEdgeStyle;rounded=0;orthogonalLoop=1;jettySize=auto;html=1;entryX=0;entryY=1;entryDx=0;entryDy=0;" edge="1" parent="1" source="V0e_SLqA4O8Yh9gC9CsA-10">
          <mxGeometry relative="1" as="geometry">
            <mxPoint x="400.9999999999999" y="220" as="targetPoint" />
          </mxGeometry>
        </mxCell>
        <mxCell id="V0e_SLqA4O8Yh9gC9CsA-10" value="320 x 320 x 64" style="text;html=1;strokeColor=none;fillColor=none;align=center;verticalAlign=middle;whiteSpace=wrap;rounded=0;" vertex="1" parent="1">
          <mxGeometry x="356" y="250" width="90" height="30" as="geometry" />
        </mxCell>
        <mxCell id="V0e_SLqA4O8Yh9gC9CsA-23" style="edgeStyle=orthogonalEdgeStyle;rounded=0;orthogonalLoop=1;jettySize=auto;html=1;exitX=1;exitY=0.5;exitDx=0;exitDy=0;entryX=0;entryY=0.5;entryDx=0;entryDy=0;" edge="1" parent="1" source="V0e_SLqA4O8Yh9gC9CsA-12" target="V0e_SLqA4O8Yh9gC9CsA-21">
          <mxGeometry relative="1" as="geometry" />
        </mxCell>
        <mxCell id="V0e_SLqA4O8Yh9gC9CsA-12" value="E-ELAN" style="rounded=1;whiteSpace=wrap;html=1;" vertex="1" parent="1">
          <mxGeometry x="608" y="150" width="60" height="70" as="geometry" />
        </mxCell>
        <mxCell id="V0e_SLqA4O8Yh9gC9CsA-13" style="edgeStyle=orthogonalEdgeStyle;rounded=0;orthogonalLoop=1;jettySize=auto;html=1;entryX=0;entryY=1;entryDx=0;entryDy=0;" edge="1" parent="1" source="V0e_SLqA4O8Yh9gC9CsA-14">
          <mxGeometry relative="1" as="geometry">
            <mxPoint x="594" y="219" as="targetPoint" />
          </mxGeometry>
        </mxCell>
        <mxCell id="V0e_SLqA4O8Yh9gC9CsA-14" value="160 x 160 x 128" style="text;html=1;strokeColor=none;fillColor=none;align=center;verticalAlign=middle;whiteSpace=wrap;rounded=0;" vertex="1" parent="1">
          <mxGeometry x="549" y="249" width="90" height="30" as="geometry" />
        </mxCell>
        <mxCell id="V0e_SLqA4O8Yh9gC9CsA-24" style="edgeStyle=orthogonalEdgeStyle;rounded=0;orthogonalLoop=1;jettySize=auto;html=1;exitX=1;exitY=0.5;exitDx=0;exitDy=0;entryX=0;entryY=0.5;entryDx=0;entryDy=0;" edge="1" parent="1" source="V0e_SLqA4O8Yh9gC9CsA-21" target="V0e_SLqA4O8Yh9gC9CsA-22">
          <mxGeometry relative="1" as="geometry" />
        </mxCell>
        <mxCell id="V0e_SLqA4O8Yh9gC9CsA-21" value="MPConv" style="rounded=1;whiteSpace=wrap;html=1;" vertex="1" parent="1">
          <mxGeometry x="694" y="150" width="60" height="70" as="geometry" />
        </mxCell>
        <mxCell id="V0e_SLqA4O8Yh9gC9CsA-29" style="edgeStyle=orthogonalEdgeStyle;rounded=0;orthogonalLoop=1;jettySize=auto;html=1;exitX=1;exitY=0.5;exitDx=0;exitDy=0;" edge="1" parent="1" source="V0e_SLqA4O8Yh9gC9CsA-22" target="V0e_SLqA4O8Yh9gC9CsA-25">
          <mxGeometry relative="1" as="geometry" />
        </mxCell>
        <mxCell id="V0e_SLqA4O8Yh9gC9CsA-22" value="E-ELAN" style="rounded=1;whiteSpace=wrap;html=1;" vertex="1" parent="1">
          <mxGeometry x="781" y="150" width="60" height="70" as="geometry" />
        </mxCell>
        <mxCell id="V0e_SLqA4O8Yh9gC9CsA-31" style="edgeStyle=orthogonalEdgeStyle;rounded=0;orthogonalLoop=1;jettySize=auto;html=1;exitX=1;exitY=0.5;exitDx=0;exitDy=0;entryX=0;entryY=0.5;entryDx=0;entryDy=0;" edge="1" parent="1" source="V0e_SLqA4O8Yh9gC9CsA-25" target="V0e_SLqA4O8Yh9gC9CsA-26">
          <mxGeometry relative="1" as="geometry">
            <mxPoint x="946" y="185" as="targetPoint" />
          </mxGeometry>
        </mxCell>
        <mxCell id="V0e_SLqA4O8Yh9gC9CsA-25" value="MPConv" style="rounded=1;whiteSpace=wrap;html=1;" vertex="1" parent="1">
          <mxGeometry x="876" y="150" width="60" height="70" as="geometry" />
        </mxCell>
        <mxCell id="V0e_SLqA4O8Yh9gC9CsA-32" style="edgeStyle=orthogonalEdgeStyle;rounded=0;orthogonalLoop=1;jettySize=auto;html=1;exitX=1;exitY=0.5;exitDx=0;exitDy=0;entryX=0;entryY=0.5;entryDx=0;entryDy=0;" edge="1" parent="1" source="V0e_SLqA4O8Yh9gC9CsA-26" target="V0e_SLqA4O8Yh9gC9CsA-27">
          <mxGeometry relative="1" as="geometry" />
        </mxCell>
        <mxCell id="V0e_SLqA4O8Yh9gC9CsA-26" value="E-ELAN" style="rounded=1;whiteSpace=wrap;html=1;" vertex="1" parent="1">
          <mxGeometry x="960" y="150" width="60" height="70" as="geometry" />
        </mxCell>
        <mxCell id="V0e_SLqA4O8Yh9gC9CsA-33" style="edgeStyle=orthogonalEdgeStyle;rounded=0;orthogonalLoop=1;jettySize=auto;html=1;exitX=1;exitY=0.5;exitDx=0;exitDy=0;entryX=0;entryY=0.5;entryDx=0;entryDy=0;" edge="1" parent="1" target="V0e_SLqA4O8Yh9gC9CsA-28">
          <mxGeometry relative="1" as="geometry">
            <mxPoint x="1092" y="185" as="sourcePoint" />
          </mxGeometry>
        </mxCell>
        <mxCell id="V0e_SLqA4O8Yh9gC9CsA-27" value="MPConv" style="rounded=1;whiteSpace=wrap;html=1;" vertex="1" parent="1">
          <mxGeometry x="1054" y="150" width="60" height="70" as="geometry" />
        </mxCell>
        <mxCell id="V0e_SLqA4O8Yh9gC9CsA-36" style="edgeStyle=orthogonalEdgeStyle;rounded=0;orthogonalLoop=1;jettySize=auto;html=1;exitX=1;exitY=0.5;exitDx=0;exitDy=0;" edge="1" parent="1">
          <mxGeometry relative="1" as="geometry">
            <mxPoint x="1220.9999999999998" y="280" as="targetPoint" />
            <mxPoint x="1174" y="185" as="sourcePoint" />
          </mxGeometry>
        </mxCell>
        <mxCell id="V0e_SLqA4O8Yh9gC9CsA-28" value="E-ELAN" style="rounded=1;whiteSpace=wrap;html=1;" vertex="1" parent="1">
          <mxGeometry x="1139" y="150" width="60" height="70" as="geometry" />
        </mxCell>
        <mxCell id="V0e_SLqA4O8Yh9gC9CsA-34" value="" style="endArrow=classic;html=1;rounded=0;" edge="1" parent="1">
          <mxGeometry width="50" height="50" relative="1" as="geometry">
            <mxPoint x="856" y="185" as="sourcePoint" />
            <mxPoint x="856" y="285" as="targetPoint" />
          </mxGeometry>
        </mxCell>
        <mxCell id="V0e_SLqA4O8Yh9gC9CsA-35" value="" style="endArrow=classic;html=1;rounded=0;" edge="1" parent="1">
          <mxGeometry width="50" height="50" relative="1" as="geometry">
            <mxPoint x="1035" y="184" as="sourcePoint" />
            <mxPoint x="1035" y="284" as="targetPoint" />
          </mxGeometry>
        </mxCell>
        <mxCell id="V0e_SLqA4O8Yh9gC9CsA-37" value="20 x 20 x 1024" style="text;html=1;strokeColor=none;fillColor=none;align=center;verticalAlign=middle;whiteSpace=wrap;rounded=0;rotation=90;" vertex="1" parent="1">
          <mxGeometry x="1199" y="260" width="90" height="30" as="geometry" />
        </mxCell>
        <mxCell id="V0e_SLqA4O8Yh9gC9CsA-38" value="40 x 40 x 1024" style="text;html=1;strokeColor=none;fillColor=none;align=center;verticalAlign=middle;whiteSpace=wrap;rounded=0;rotation=90;" vertex="1" parent="1">
          <mxGeometry x="1010" y="260" width="90" height="30" as="geometry" />
        </mxCell>
        <mxCell id="V0e_SLqA4O8Yh9gC9CsA-39" value="80 x 80 x 512" style="text;html=1;strokeColor=none;fillColor=none;align=center;verticalAlign=middle;whiteSpace=wrap;rounded=0;rotation=90;" vertex="1" parent="1">
          <mxGeometry x="830" y="260" width="90" height="30" as="geometry" />
        </mxCell>
      </root>
    </mxGraphModel>
  </diagram>
  <diagram id="jxV1E8fl8Tx7Qhw48Gkp" name="Page-5">
    <mxGraphModel dx="731" dy="782" grid="1" gridSize="10" guides="1" tooltips="1" connect="1" arrows="1" fold="1" page="1" pageScale="1" pageWidth="850" pageHeight="1100" math="0" shadow="0">
      <root>
        <mxCell id="0" />
        <mxCell id="1" parent="0" />
        <mxCell id="2bTjcyguzadlH3nRPmBr-1" value="BConv" style="rounded=1;whiteSpace=wrap;html=1;" vertex="1" parent="1">
          <mxGeometry x="80" y="200" width="60" height="70" as="geometry" />
        </mxCell>
        <mxCell id="2bTjcyguzadlH3nRPmBr-5" style="edgeStyle=orthogonalEdgeStyle;rounded=0;orthogonalLoop=1;jettySize=auto;html=1;exitX=1;exitY=0.5;exitDx=0;exitDy=0;" edge="1" parent="1" source="2bTjcyguzadlH3nRPmBr-2" target="2bTjcyguzadlH3nRPmBr-3">
          <mxGeometry relative="1" as="geometry" />
        </mxCell>
        <mxCell id="2bTjcyguzadlH3nRPmBr-2" value="Conv" style="rounded=1;whiteSpace=wrap;html=1;" vertex="1" parent="1">
          <mxGeometry x="180" y="200" width="60" height="70" as="geometry" />
        </mxCell>
        <mxCell id="2bTjcyguzadlH3nRPmBr-6" style="edgeStyle=orthogonalEdgeStyle;rounded=0;orthogonalLoop=1;jettySize=auto;html=1;exitX=1;exitY=0.5;exitDx=0;exitDy=0;entryX=0;entryY=0.5;entryDx=0;entryDy=0;" edge="1" parent="1" source="2bTjcyguzadlH3nRPmBr-3" target="2bTjcyguzadlH3nRPmBr-4">
          <mxGeometry relative="1" as="geometry" />
        </mxCell>
        <mxCell id="2bTjcyguzadlH3nRPmBr-3" value="Batch&lt;br&gt;Norm" style="rounded=1;whiteSpace=wrap;html=1;" vertex="1" parent="1">
          <mxGeometry x="260" y="200" width="60" height="70" as="geometry" />
        </mxCell>
        <mxCell id="2bTjcyguzadlH3nRPmBr-4" value="Leaky&lt;br&gt;ReLu" style="rounded=1;whiteSpace=wrap;html=1;" vertex="1" parent="1">
          <mxGeometry x="340" y="200" width="60" height="70" as="geometry" />
        </mxCell>
        <mxCell id="2bTjcyguzadlH3nRPmBr-8" value="&lt;font style=&quot;font-size: 24px;&quot;&gt;=&lt;/font&gt;" style="text;html=1;strokeColor=none;fillColor=none;align=center;verticalAlign=middle;whiteSpace=wrap;rounded=0;" vertex="1" parent="1">
          <mxGeometry x="130" y="226" width="60" height="30" as="geometry" />
        </mxCell>
        <mxCell id="2bTjcyguzadlH3nRPmBr-9" value="(k=1, s=1)&lt;br&gt;(k=3, s=1)&lt;br&gt;(k=3, s=2)" style="text;html=1;strokeColor=none;fillColor=none;align=center;verticalAlign=middle;whiteSpace=wrap;rounded=0;" vertex="1" parent="1">
          <mxGeometry x="80" y="270" width="60" height="60" as="geometry" />
        </mxCell>
      </root>
    </mxGraphModel>
  </diagram>
  <diagram id="pITV6bMqx9lF4aGLCF1S" name="Page-6">
    <mxGraphModel dx="731" dy="782" grid="1" gridSize="10" guides="1" tooltips="1" connect="1" arrows="1" fold="1" page="1" pageScale="1" pageWidth="850" pageHeight="1100" math="0" shadow="0">
      <root>
        <mxCell id="0" />
        <mxCell id="1" parent="0" />
        <mxCell id="QElleIZocv19iSxrPPRd-1" value="MPConv" style="rounded=1;whiteSpace=wrap;html=1;" vertex="1" parent="1">
          <mxGeometry x="80" y="200" width="60" height="70" as="geometry" />
        </mxCell>
        <mxCell id="QElleIZocv19iSxrPPRd-9" style="edgeStyle=orthogonalEdgeStyle;rounded=0;orthogonalLoop=1;jettySize=auto;html=1;exitX=1;exitY=0.5;exitDx=0;exitDy=0;entryX=0;entryY=0.5;entryDx=0;entryDy=0;" edge="1" parent="1" source="QElleIZocv19iSxrPPRd-2" target="QElleIZocv19iSxrPPRd-3">
          <mxGeometry relative="1" as="geometry" />
        </mxCell>
        <mxCell id="QElleIZocv19iSxrPPRd-2" value="Max&lt;br&gt;Pooling" style="rounded=1;whiteSpace=wrap;html=1;" vertex="1" parent="1">
          <mxGeometry x="224" y="150" width="60" height="70" as="geometry" />
        </mxCell>
        <mxCell id="QElleIZocv19iSxrPPRd-11" style="edgeStyle=orthogonalEdgeStyle;rounded=0;orthogonalLoop=1;jettySize=auto;html=1;exitX=1;exitY=0.5;exitDx=0;exitDy=0;entryX=0.5;entryY=0;entryDx=0;entryDy=0;" edge="1" parent="1" source="QElleIZocv19iSxrPPRd-3" target="QElleIZocv19iSxrPPRd-7">
          <mxGeometry relative="1" as="geometry" />
        </mxCell>
        <mxCell id="QElleIZocv19iSxrPPRd-3" value="BConv" style="rounded=1;whiteSpace=wrap;html=1;" vertex="1" parent="1">
          <mxGeometry x="314" y="150" width="60" height="70" as="geometry" />
        </mxCell>
        <mxCell id="QElleIZocv19iSxrPPRd-8" style="edgeStyle=orthogonalEdgeStyle;rounded=0;orthogonalLoop=1;jettySize=auto;html=1;exitX=0;exitY=0.5;exitDx=0;exitDy=0;entryX=0;entryY=0.5;entryDx=0;entryDy=0;startArrow=classic;startFill=1;" edge="1" parent="1" source="QElleIZocv19iSxrPPRd-4" target="QElleIZocv19iSxrPPRd-2">
          <mxGeometry relative="1" as="geometry">
            <Array as="points">
              <mxPoint x="190" y="275" />
              <mxPoint x="190" y="185" />
            </Array>
          </mxGeometry>
        </mxCell>
        <mxCell id="QElleIZocv19iSxrPPRd-10" style="edgeStyle=orthogonalEdgeStyle;rounded=0;orthogonalLoop=1;jettySize=auto;html=1;exitX=1;exitY=0.5;exitDx=0;exitDy=0;entryX=0;entryY=0.5;entryDx=0;entryDy=0;" edge="1" parent="1" source="QElleIZocv19iSxrPPRd-4" target="QElleIZocv19iSxrPPRd-5">
          <mxGeometry relative="1" as="geometry" />
        </mxCell>
        <mxCell id="QElleIZocv19iSxrPPRd-4" value="BConv" style="rounded=1;whiteSpace=wrap;html=1;" vertex="1" parent="1">
          <mxGeometry x="224" y="240" width="60" height="70" as="geometry" />
        </mxCell>
        <mxCell id="QElleIZocv19iSxrPPRd-12" style="edgeStyle=orthogonalEdgeStyle;rounded=0;orthogonalLoop=1;jettySize=auto;html=1;exitX=1;exitY=0.5;exitDx=0;exitDy=0;entryX=0.5;entryY=1;entryDx=0;entryDy=0;" edge="1" parent="1" source="QElleIZocv19iSxrPPRd-5" target="QElleIZocv19iSxrPPRd-7">
          <mxGeometry relative="1" as="geometry" />
        </mxCell>
        <mxCell id="QElleIZocv19iSxrPPRd-5" value="BConv" style="rounded=1;whiteSpace=wrap;html=1;" vertex="1" parent="1">
          <mxGeometry x="314" y="240" width="60" height="70" as="geometry" />
        </mxCell>
        <mxCell id="QElleIZocv19iSxrPPRd-7" value="cat" style="ellipse;whiteSpace=wrap;html=1;aspect=fixed;" vertex="1" parent="1">
          <mxGeometry x="385" y="210" width="40" height="40" as="geometry" />
        </mxCell>
        <mxCell id="CwckFP4tI_lWGEw0Mc2S-1" value="&lt;font style=&quot;font-size: 24px;&quot;&gt;=&lt;/font&gt;" style="text;html=1;strokeColor=none;fillColor=none;align=center;verticalAlign=middle;whiteSpace=wrap;rounded=0;" vertex="1" parent="1">
          <mxGeometry x="130" y="226" width="60" height="30" as="geometry" />
        </mxCell>
      </root>
    </mxGraphModel>
  </diagram>
  <diagram id="8337xG1oHFb_7wuTk0Na" name="Page-7">
    <mxGraphModel dx="1502" dy="1780" grid="1" gridSize="10" guides="1" tooltips="1" connect="1" arrows="1" fold="1" page="1" pageScale="1" pageWidth="850" pageHeight="1100" math="0" shadow="0">
      <root>
        <mxCell id="0" />
        <mxCell id="1" parent="0" />
        <mxCell id="pvoszcnUyvARYbqqxocD-6" style="edgeStyle=orthogonalEdgeStyle;rounded=0;orthogonalLoop=1;jettySize=auto;html=1;exitX=0.5;exitY=1;exitDx=0;exitDy=0;entryX=0.5;entryY=0;entryDx=0;entryDy=0;" edge="1" parent="1" source="kLgmpPpJyqmE3PuUxbkY-1" target="kLgmpPpJyqmE3PuUxbkY-2">
          <mxGeometry relative="1" as="geometry" />
        </mxCell>
        <mxCell id="kLgmpPpJyqmE3PuUxbkY-1" value="SPPCSPC" style="rounded=1;whiteSpace=wrap;html=1;" vertex="1" parent="1">
          <mxGeometry x="100" y="100" width="120" height="30" as="geometry" />
        </mxCell>
        <mxCell id="pvoszcnUyvARYbqqxocD-7" style="edgeStyle=orthogonalEdgeStyle;rounded=0;orthogonalLoop=1;jettySize=auto;html=1;exitX=0.5;exitY=1;exitDx=0;exitDy=0;entryX=0.5;entryY=0;entryDx=0;entryDy=0;" edge="1" parent="1" source="kLgmpPpJyqmE3PuUxbkY-2" target="kLgmpPpJyqmE3PuUxbkY-3">
          <mxGeometry relative="1" as="geometry" />
        </mxCell>
        <mxCell id="kLgmpPpJyqmE3PuUxbkY-2" value="BConv" style="rounded=1;whiteSpace=wrap;html=1;" vertex="1" parent="1">
          <mxGeometry x="100" y="160" width="120" height="30" as="geometry" />
        </mxCell>
        <mxCell id="pvoszcnUyvARYbqqxocD-8" style="edgeStyle=orthogonalEdgeStyle;rounded=0;orthogonalLoop=1;jettySize=auto;html=1;exitX=0.5;exitY=1;exitDx=0;exitDy=0;entryX=0.5;entryY=0;entryDx=0;entryDy=0;" edge="1" parent="1" source="kLgmpPpJyqmE3PuUxbkY-3" target="kLgmpPpJyqmE3PuUxbkY-4">
          <mxGeometry relative="1" as="geometry" />
        </mxCell>
        <mxCell id="kLgmpPpJyqmE3PuUxbkY-3" value="UP&amp;nbsp; Sample" style="rounded=1;whiteSpace=wrap;html=1;" vertex="1" parent="1">
          <mxGeometry x="100" y="220" width="120" height="30" as="geometry" />
        </mxCell>
        <mxCell id="pvoszcnUyvARYbqqxocD-9" style="edgeStyle=orthogonalEdgeStyle;rounded=0;orthogonalLoop=1;jettySize=auto;html=1;exitX=0.5;exitY=1;exitDx=0;exitDy=0;entryX=0.5;entryY=0;entryDx=0;entryDy=0;" edge="1" parent="1" source="kLgmpPpJyqmE3PuUxbkY-4" target="kLgmpPpJyqmE3PuUxbkY-5">
          <mxGeometry relative="1" as="geometry" />
        </mxCell>
        <mxCell id="kLgmpPpJyqmE3PuUxbkY-4" value="cat" style="ellipse;whiteSpace=wrap;html=1;aspect=fixed;" vertex="1" parent="1">
          <mxGeometry x="140" y="280" width="40" height="40" as="geometry" />
        </mxCell>
        <mxCell id="pvoszcnUyvARYbqqxocD-10" style="edgeStyle=orthogonalEdgeStyle;rounded=0;orthogonalLoop=1;jettySize=auto;html=1;exitX=0.5;exitY=1;exitDx=0;exitDy=0;entryX=0.5;entryY=0;entryDx=0;entryDy=0;" edge="1" parent="1" source="kLgmpPpJyqmE3PuUxbkY-5" target="kLgmpPpJyqmE3PuUxbkY-6">
          <mxGeometry relative="1" as="geometry" />
        </mxCell>
        <mxCell id="kLgmpPpJyqmE3PuUxbkY-5" value="Cat conv" style="rounded=1;whiteSpace=wrap;html=1;" vertex="1" parent="1">
          <mxGeometry x="100" y="350" width="120" height="30" as="geometry" />
        </mxCell>
        <mxCell id="pvoszcnUyvARYbqqxocD-11" style="edgeStyle=orthogonalEdgeStyle;rounded=0;orthogonalLoop=1;jettySize=auto;html=1;exitX=0.5;exitY=1;exitDx=0;exitDy=0;entryX=0.5;entryY=0;entryDx=0;entryDy=0;" edge="1" parent="1" source="kLgmpPpJyqmE3PuUxbkY-6" target="kLgmpPpJyqmE3PuUxbkY-7">
          <mxGeometry relative="1" as="geometry" />
        </mxCell>
        <mxCell id="kLgmpPpJyqmE3PuUxbkY-6" value="BConv" style="rounded=1;whiteSpace=wrap;html=1;" vertex="1" parent="1">
          <mxGeometry x="100" y="410" width="120" height="30" as="geometry" />
        </mxCell>
        <mxCell id="pvoszcnUyvARYbqqxocD-12" style="edgeStyle=orthogonalEdgeStyle;rounded=0;orthogonalLoop=1;jettySize=auto;html=1;exitX=0.5;exitY=1;exitDx=0;exitDy=0;entryX=0.5;entryY=0;entryDx=0;entryDy=0;" edge="1" parent="1" source="kLgmpPpJyqmE3PuUxbkY-7" target="kLgmpPpJyqmE3PuUxbkY-8">
          <mxGeometry relative="1" as="geometry" />
        </mxCell>
        <mxCell id="kLgmpPpJyqmE3PuUxbkY-7" value="BConv" style="rounded=1;whiteSpace=wrap;html=1;" vertex="1" parent="1">
          <mxGeometry x="100" y="470" width="120" height="30" as="geometry" />
        </mxCell>
        <mxCell id="pvoszcnUyvARYbqqxocD-13" style="edgeStyle=orthogonalEdgeStyle;rounded=0;orthogonalLoop=1;jettySize=auto;html=1;exitX=0.5;exitY=1;exitDx=0;exitDy=0;entryX=0.5;entryY=0;entryDx=0;entryDy=0;" edge="1" parent="1" source="kLgmpPpJyqmE3PuUxbkY-8" target="kLgmpPpJyqmE3PuUxbkY-9">
          <mxGeometry relative="1" as="geometry" />
        </mxCell>
        <mxCell id="kLgmpPpJyqmE3PuUxbkY-8" value="UP&amp;nbsp; Sample" style="rounded=1;whiteSpace=wrap;html=1;" vertex="1" parent="1">
          <mxGeometry x="100" y="530" width="120" height="30" as="geometry" />
        </mxCell>
        <mxCell id="pvoszcnUyvARYbqqxocD-14" style="edgeStyle=orthogonalEdgeStyle;rounded=0;orthogonalLoop=1;jettySize=auto;html=1;exitX=0.5;exitY=1;exitDx=0;exitDy=0;entryX=0.5;entryY=0;entryDx=0;entryDy=0;" edge="1" parent="1" source="kLgmpPpJyqmE3PuUxbkY-9" target="kLgmpPpJyqmE3PuUxbkY-10">
          <mxGeometry relative="1" as="geometry" />
        </mxCell>
        <mxCell id="kLgmpPpJyqmE3PuUxbkY-9" value="cat" style="ellipse;whiteSpace=wrap;html=1;aspect=fixed;" vertex="1" parent="1">
          <mxGeometry x="140" y="590" width="40" height="40" as="geometry" />
        </mxCell>
        <mxCell id="pvoszcnUyvARYbqqxocD-15" style="edgeStyle=orthogonalEdgeStyle;rounded=0;orthogonalLoop=1;jettySize=auto;html=1;exitX=0.5;exitY=1;exitDx=0;exitDy=0;entryX=0.5;entryY=0;entryDx=0;entryDy=0;" edge="1" parent="1" source="kLgmpPpJyqmE3PuUxbkY-10" target="kLgmpPpJyqmE3PuUxbkY-11">
          <mxGeometry relative="1" as="geometry" />
        </mxCell>
        <mxCell id="kLgmpPpJyqmE3PuUxbkY-10" value="Cat conv" style="rounded=1;whiteSpace=wrap;html=1;" vertex="1" parent="1">
          <mxGeometry x="100" y="660" width="120" height="30" as="geometry" />
        </mxCell>
        <mxCell id="pvoszcnUyvARYbqqxocD-38" style="edgeStyle=orthogonalEdgeStyle;rounded=0;orthogonalLoop=1;jettySize=auto;html=1;exitX=1;exitY=0.5;exitDx=0;exitDy=0;entryX=0.5;entryY=1;entryDx=0;entryDy=0;" edge="1" parent="1" source="kLgmpPpJyqmE3PuUxbkY-11" target="pvoszcnUyvARYbqqxocD-36">
          <mxGeometry relative="1" as="geometry" />
        </mxCell>
        <mxCell id="kLgmpPpJyqmE3PuUxbkY-11" value="BConv" style="rounded=1;whiteSpace=wrap;html=1;" vertex="1" parent="1">
          <mxGeometry x="100" y="720" width="120" height="30" as="geometry" />
        </mxCell>
        <mxCell id="pvoszcnUyvARYbqqxocD-1" value="20 x 20 x 1024" style="text;html=1;strokeColor=none;fillColor=none;align=center;verticalAlign=middle;whiteSpace=wrap;rounded=0;rotation=0;" vertex="1" parent="1">
          <mxGeometry x="40" y="30" width="90" height="30" as="geometry" />
        </mxCell>
        <mxCell id="pvoszcnUyvARYbqqxocD-2" value="40 x 40 x 1024" style="text;html=1;strokeColor=none;fillColor=none;align=center;verticalAlign=middle;whiteSpace=wrap;rounded=0;rotation=0;" vertex="1" parent="1">
          <mxGeometry x="-60" y="272" width="90" height="30" as="geometry" />
        </mxCell>
        <mxCell id="pvoszcnUyvARYbqqxocD-3" value="80 x 80 x 512" style="text;html=1;strokeColor=none;fillColor=none;align=center;verticalAlign=middle;whiteSpace=wrap;rounded=0;rotation=0;" vertex="1" parent="1">
          <mxGeometry x="-60" y="580" width="90" height="30" as="geometry" />
        </mxCell>
        <mxCell id="pvoszcnUyvARYbqqxocD-5" value="" style="endArrow=classic;html=1;rounded=0;entryX=0.5;entryY=0;entryDx=0;entryDy=0;" edge="1" parent="1" target="kLgmpPpJyqmE3PuUxbkY-1">
          <mxGeometry width="50" height="50" relative="1" as="geometry">
            <mxPoint x="40" y="60" as="sourcePoint" />
            <mxPoint x="320" y="160" as="targetPoint" />
            <Array as="points">
              <mxPoint x="160" y="60" />
            </Array>
          </mxGeometry>
        </mxCell>
        <mxCell id="pvoszcnUyvARYbqqxocD-17" value="" style="endArrow=classic;html=1;rounded=0;entryX=0;entryY=0.5;entryDx=0;entryDy=0;" edge="1" parent="1">
          <mxGeometry width="50" height="50" relative="1" as="geometry">
            <mxPoint x="90" y="299" as="sourcePoint" />
            <mxPoint x="140" y="299.52" as="targetPoint" />
          </mxGeometry>
        </mxCell>
        <mxCell id="pvoszcnUyvARYbqqxocD-32" style="edgeStyle=orthogonalEdgeStyle;rounded=0;orthogonalLoop=1;jettySize=auto;html=1;exitX=0.5;exitY=0;exitDx=0;exitDy=0;" edge="1" parent="1" source="pvoszcnUyvARYbqqxocD-19">
          <mxGeometry relative="1" as="geometry">
            <mxPoint x="360.19047619047615" y="50" as="targetPoint" />
          </mxGeometry>
        </mxCell>
        <mxCell id="pvoszcnUyvARYbqqxocD-19" value="Cat conv" style="rounded=1;whiteSpace=wrap;html=1;" vertex="1" parent="1">
          <mxGeometry x="300" y="69" width="120" height="30" as="geometry" />
        </mxCell>
        <mxCell id="pvoszcnUyvARYbqqxocD-42" style="edgeStyle=orthogonalEdgeStyle;rounded=0;orthogonalLoop=1;jettySize=auto;html=1;exitX=1;exitY=0.5;exitDx=0;exitDy=0;entryX=0;entryY=0.5;entryDx=0;entryDy=0;" edge="1" parent="1" source="pvoszcnUyvARYbqqxocD-20" target="pvoszcnUyvARYbqqxocD-39">
          <mxGeometry relative="1" as="geometry" />
        </mxCell>
        <mxCell id="pvoszcnUyvARYbqqxocD-20" value="BConv" style="rounded=1;whiteSpace=wrap;html=1;" vertex="1" parent="1">
          <mxGeometry x="300" y="19" width="120" height="30" as="geometry" />
        </mxCell>
        <mxCell id="pvoszcnUyvARYbqqxocD-30" style="edgeStyle=orthogonalEdgeStyle;rounded=0;orthogonalLoop=1;jettySize=auto;html=1;exitX=0;exitY=0.5;exitDx=0;exitDy=0;startArrow=classic;startFill=1;endArrow=none;endFill=0;" edge="1" parent="1" source="pvoszcnUyvARYbqqxocD-21">
          <mxGeometry relative="1" as="geometry">
            <mxPoint x="160" y="139.7619047619047" as="targetPoint" />
          </mxGeometry>
        </mxCell>
        <mxCell id="pvoszcnUyvARYbqqxocD-31" style="edgeStyle=orthogonalEdgeStyle;rounded=0;orthogonalLoop=1;jettySize=auto;html=1;exitX=0.5;exitY=0;exitDx=0;exitDy=0;entryX=0.5;entryY=1;entryDx=0;entryDy=0;" edge="1" parent="1" source="pvoszcnUyvARYbqqxocD-21" target="pvoszcnUyvARYbqqxocD-19">
          <mxGeometry relative="1" as="geometry" />
        </mxCell>
        <mxCell id="pvoszcnUyvARYbqqxocD-21" value="cat" style="ellipse;whiteSpace=wrap;html=1;aspect=fixed;" vertex="1" parent="1">
          <mxGeometry x="340" y="120" width="40" height="40" as="geometry" />
        </mxCell>
        <mxCell id="pvoszcnUyvARYbqqxocD-28" style="edgeStyle=orthogonalEdgeStyle;rounded=0;orthogonalLoop=1;jettySize=auto;html=1;exitX=0.5;exitY=0;exitDx=0;exitDy=0;entryX=0.5;entryY=1;entryDx=0;entryDy=0;" edge="1" parent="1" source="pvoszcnUyvARYbqqxocD-22" target="pvoszcnUyvARYbqqxocD-23">
          <mxGeometry relative="1" as="geometry" />
        </mxCell>
        <mxCell id="pvoszcnUyvARYbqqxocD-22" value="BConv" style="rounded=1;whiteSpace=wrap;html=1;" vertex="1" parent="1">
          <mxGeometry x="300" y="270" width="120" height="30" as="geometry" />
        </mxCell>
        <mxCell id="pvoszcnUyvARYbqqxocD-29" style="edgeStyle=orthogonalEdgeStyle;rounded=0;orthogonalLoop=1;jettySize=auto;html=1;exitX=0.5;exitY=0;exitDx=0;exitDy=0;entryX=0.5;entryY=1;entryDx=0;entryDy=0;" edge="1" parent="1" source="pvoszcnUyvARYbqqxocD-23" target="pvoszcnUyvARYbqqxocD-21">
          <mxGeometry relative="1" as="geometry" />
        </mxCell>
        <mxCell id="pvoszcnUyvARYbqqxocD-23" value="Down Conv" style="rounded=1;whiteSpace=wrap;html=1;" vertex="1" parent="1">
          <mxGeometry x="300" y="190" width="120" height="30" as="geometry" />
        </mxCell>
        <mxCell id="pvoszcnUyvARYbqqxocD-27" style="edgeStyle=orthogonalEdgeStyle;rounded=0;orthogonalLoop=1;jettySize=auto;html=1;exitX=0.5;exitY=0;exitDx=0;exitDy=0;entryX=0.5;entryY=1;entryDx=0;entryDy=0;" edge="1" parent="1" source="pvoszcnUyvARYbqqxocD-24" target="pvoszcnUyvARYbqqxocD-22">
          <mxGeometry relative="1" as="geometry" />
        </mxCell>
        <mxCell id="pvoszcnUyvARYbqqxocD-24" value="Cat conv" style="rounded=1;whiteSpace=wrap;html=1;" vertex="1" parent="1">
          <mxGeometry x="300" y="340" width="120" height="30" as="geometry" />
        </mxCell>
        <mxCell id="pvoszcnUyvARYbqqxocD-34" style="edgeStyle=orthogonalEdgeStyle;rounded=0;orthogonalLoop=1;jettySize=auto;html=1;exitX=0.5;exitY=0;exitDx=0;exitDy=0;entryX=0.5;entryY=1;entryDx=0;entryDy=0;" edge="1" parent="1" source="pvoszcnUyvARYbqqxocD-33" target="pvoszcnUyvARYbqqxocD-24">
          <mxGeometry relative="1" as="geometry" />
        </mxCell>
        <mxCell id="pvoszcnUyvARYbqqxocD-35" style="edgeStyle=orthogonalEdgeStyle;rounded=0;orthogonalLoop=1;jettySize=auto;html=1;exitX=0;exitY=0.5;exitDx=0;exitDy=0;" edge="1" parent="1" source="pvoszcnUyvARYbqqxocD-33">
          <mxGeometry relative="1" as="geometry">
            <mxPoint x="160" y="450.2380952380952" as="targetPoint" />
          </mxGeometry>
        </mxCell>
        <mxCell id="pvoszcnUyvARYbqqxocD-33" value="cat" style="ellipse;whiteSpace=wrap;html=1;aspect=fixed;" vertex="1" parent="1">
          <mxGeometry x="340" y="430" width="40" height="40" as="geometry" />
        </mxCell>
        <mxCell id="pvoszcnUyvARYbqqxocD-37" style="edgeStyle=orthogonalEdgeStyle;rounded=0;orthogonalLoop=1;jettySize=auto;html=1;exitX=0.5;exitY=0;exitDx=0;exitDy=0;entryX=0.5;entryY=1;entryDx=0;entryDy=0;" edge="1" parent="1" source="pvoszcnUyvARYbqqxocD-36" target="pvoszcnUyvARYbqqxocD-33">
          <mxGeometry relative="1" as="geometry" />
        </mxCell>
        <mxCell id="pvoszcnUyvARYbqqxocD-36" value="Down Conv" style="rounded=1;whiteSpace=wrap;html=1;" vertex="1" parent="1">
          <mxGeometry x="300" y="600" width="120" height="30" as="geometry" />
        </mxCell>
        <mxCell id="pvoszcnUyvARYbqqxocD-43" style="edgeStyle=orthogonalEdgeStyle;rounded=0;orthogonalLoop=1;jettySize=auto;html=1;exitX=1;exitY=0.5;exitDx=0;exitDy=0;entryX=0;entryY=0.5;entryDx=0;entryDy=0;" edge="1" parent="1" source="pvoszcnUyvARYbqqxocD-39" target="pvoszcnUyvARYbqqxocD-40">
          <mxGeometry relative="1" as="geometry" />
        </mxCell>
        <mxCell id="pvoszcnUyvARYbqqxocD-39" value="REP" style="rounded=1;whiteSpace=wrap;html=1;" vertex="1" parent="1">
          <mxGeometry x="480" y="19" width="60" height="30" as="geometry" />
        </mxCell>
        <mxCell id="pvoszcnUyvARYbqqxocD-44" style="edgeStyle=orthogonalEdgeStyle;rounded=0;orthogonalLoop=1;jettySize=auto;html=1;exitX=1;exitY=0.5;exitDx=0;exitDy=0;entryX=0;entryY=0.563;entryDx=0;entryDy=0;entryPerimeter=0;" edge="1" parent="1" source="pvoszcnUyvARYbqqxocD-40" target="pvoszcnUyvARYbqqxocD-41">
          <mxGeometry relative="1" as="geometry" />
        </mxCell>
        <mxCell id="pvoszcnUyvARYbqqxocD-40" value="Conv" style="rounded=1;whiteSpace=wrap;html=1;" vertex="1" parent="1">
          <mxGeometry x="570" y="19" width="60" height="30" as="geometry" />
        </mxCell>
        <mxCell id="pvoszcnUyvARYbqqxocD-41" value="" style="shape=cube;whiteSpace=wrap;html=1;boundedLbl=1;backgroundOutline=1;darkOpacity=0.05;darkOpacity2=0.1;" vertex="1" parent="1">
          <mxGeometry x="700" y="-11" width="70" height="80" as="geometry" />
        </mxCell>
        <mxCell id="pvoszcnUyvARYbqqxocD-45" style="edgeStyle=orthogonalEdgeStyle;rounded=0;orthogonalLoop=1;jettySize=auto;html=1;exitX=1;exitY=0.5;exitDx=0;exitDy=0;entryX=0;entryY=0.5;entryDx=0;entryDy=0;" edge="1" parent="1" source="pvoszcnUyvARYbqqxocD-46" target="pvoszcnUyvARYbqqxocD-48">
          <mxGeometry relative="1" as="geometry" />
        </mxCell>
        <mxCell id="pvoszcnUyvARYbqqxocD-50" style="edgeStyle=orthogonalEdgeStyle;rounded=0;orthogonalLoop=1;jettySize=auto;html=1;exitX=0;exitY=0.5;exitDx=0;exitDy=0;startArrow=classic;startFill=1;endArrow=none;endFill=0;" edge="1" parent="1" source="pvoszcnUyvARYbqqxocD-46">
          <mxGeometry relative="1" as="geometry">
            <mxPoint x="360" y="239.7619047619046" as="targetPoint" />
          </mxGeometry>
        </mxCell>
        <mxCell id="pvoszcnUyvARYbqqxocD-46" value="REP" style="rounded=1;whiteSpace=wrap;html=1;" vertex="1" parent="1">
          <mxGeometry x="480" y="225" width="60" height="30" as="geometry" />
        </mxCell>
        <mxCell id="pvoszcnUyvARYbqqxocD-47" style="edgeStyle=orthogonalEdgeStyle;rounded=0;orthogonalLoop=1;jettySize=auto;html=1;exitX=1;exitY=0.5;exitDx=0;exitDy=0;entryX=0;entryY=0.563;entryDx=0;entryDy=0;entryPerimeter=0;" edge="1" parent="1" source="pvoszcnUyvARYbqqxocD-48" target="pvoszcnUyvARYbqqxocD-49">
          <mxGeometry relative="1" as="geometry" />
        </mxCell>
        <mxCell id="pvoszcnUyvARYbqqxocD-48" value="Conv" style="rounded=1;whiteSpace=wrap;html=1;" vertex="1" parent="1">
          <mxGeometry x="570" y="225" width="60" height="30" as="geometry" />
        </mxCell>
        <mxCell id="pvoszcnUyvARYbqqxocD-49" value="" style="shape=cube;whiteSpace=wrap;html=1;boundedLbl=1;backgroundOutline=1;darkOpacity=0.05;darkOpacity2=0.1;" vertex="1" parent="1">
          <mxGeometry x="700" y="195" width="70" height="80" as="geometry" />
        </mxCell>
        <mxCell id="pvoszcnUyvARYbqqxocD-51" style="edgeStyle=orthogonalEdgeStyle;rounded=0;orthogonalLoop=1;jettySize=auto;html=1;exitX=1;exitY=0.5;exitDx=0;exitDy=0;entryX=0;entryY=0.5;entryDx=0;entryDy=0;" edge="1" parent="1" source="pvoszcnUyvARYbqqxocD-52" target="pvoszcnUyvARYbqqxocD-54">
          <mxGeometry relative="1" as="geometry" />
        </mxCell>
        <mxCell id="pvoszcnUyvARYbqqxocD-52" value="REP" style="rounded=1;whiteSpace=wrap;html=1;" vertex="1" parent="1">
          <mxGeometry x="470" y="720" width="60" height="30" as="geometry" />
        </mxCell>
        <mxCell id="pvoszcnUyvARYbqqxocD-53" style="edgeStyle=orthogonalEdgeStyle;rounded=0;orthogonalLoop=1;jettySize=auto;html=1;exitX=1;exitY=0.5;exitDx=0;exitDy=0;entryX=0;entryY=0.563;entryDx=0;entryDy=0;entryPerimeter=0;" edge="1" parent="1" source="pvoszcnUyvARYbqqxocD-54" target="pvoszcnUyvARYbqqxocD-55">
          <mxGeometry relative="1" as="geometry" />
        </mxCell>
        <mxCell id="pvoszcnUyvARYbqqxocD-54" value="Conv" style="rounded=1;whiteSpace=wrap;html=1;" vertex="1" parent="1">
          <mxGeometry x="560" y="720" width="60" height="30" as="geometry" />
        </mxCell>
        <mxCell id="pvoszcnUyvARYbqqxocD-55" value="" style="shape=cube;whiteSpace=wrap;html=1;boundedLbl=1;backgroundOutline=1;darkOpacity=0.05;darkOpacity2=0.1;" vertex="1" parent="1">
          <mxGeometry x="690" y="690" width="70" height="80" as="geometry" />
        </mxCell>
        <mxCell id="pvoszcnUyvARYbqqxocD-56" value="" style="endArrow=classic;html=1;rounded=0;entryX=0;entryY=0.5;entryDx=0;entryDy=0;" edge="1" parent="1" target="pvoszcnUyvARYbqqxocD-52">
          <mxGeometry width="50" height="50" relative="1" as="geometry">
            <mxPoint x="360" y="735" as="sourcePoint" />
            <mxPoint x="490" y="510" as="targetPoint" />
          </mxGeometry>
        </mxCell>
        <mxCell id="pvoszcnUyvARYbqqxocD-62" value="80 x 80 x 85" style="text;html=1;strokeColor=none;fillColor=none;align=center;verticalAlign=middle;whiteSpace=wrap;rounded=0;rotation=0;" vertex="1" parent="1">
          <mxGeometry x="690" y="770" width="90" height="30" as="geometry" />
        </mxCell>
        <mxCell id="pvoszcnUyvARYbqqxocD-63" value="40 x 40 x 85" style="text;html=1;strokeColor=none;fillColor=none;align=center;verticalAlign=middle;whiteSpace=wrap;rounded=0;rotation=0;" vertex="1" parent="1">
          <mxGeometry x="700" y="275" width="90" height="30" as="geometry" />
        </mxCell>
        <mxCell id="pvoszcnUyvARYbqqxocD-64" value="20 x 20 x 85" style="text;html=1;strokeColor=none;fillColor=none;align=center;verticalAlign=middle;whiteSpace=wrap;rounded=0;rotation=0;" vertex="1" parent="1">
          <mxGeometry x="700" y="69" width="90" height="30" as="geometry" />
        </mxCell>
        <mxCell id="pvoszcnUyvARYbqqxocD-65" value="20 x 20 x 512" style="text;html=1;strokeColor=none;fillColor=none;align=center;verticalAlign=middle;whiteSpace=wrap;rounded=0;rotation=0;" vertex="1" parent="1">
          <mxGeometry x="400" y="-11" width="90" height="30" as="geometry" />
        </mxCell>
        <mxCell id="pvoszcnUyvARYbqqxocD-66" value="40 x 40 x 256" style="text;html=1;strokeColor=none;fillColor=none;align=center;verticalAlign=middle;whiteSpace=wrap;rounded=0;rotation=0;" vertex="1" parent="1">
          <mxGeometry x="380" y="242" width="90" height="30" as="geometry" />
        </mxCell>
        <mxCell id="pvoszcnUyvARYbqqxocD-67" value="80 x 80 x 128" style="text;html=1;strokeColor=none;fillColor=none;align=center;verticalAlign=middle;whiteSpace=wrap;rounded=0;rotation=0;" vertex="1" parent="1">
          <mxGeometry x="370" y="740" width="90" height="30" as="geometry" />
        </mxCell>
        <mxCell id="pvoszcnUyvARYbqqxocD-68" value="40 x 40 x 256" style="text;html=1;strokeColor=none;fillColor=none;align=center;verticalAlign=middle;whiteSpace=wrap;rounded=0;rotation=0;" vertex="1" parent="1">
          <mxGeometry x="360" y="560" width="90" height="30" as="geometry" />
        </mxCell>
        <mxCell id="pvoszcnUyvARYbqqxocD-69" value="40 x 40 x 512" style="text;html=1;strokeColor=none;fillColor=none;align=center;verticalAlign=middle;whiteSpace=wrap;rounded=0;rotation=0;" vertex="1" parent="1">
          <mxGeometry x="380" y="450" width="90" height="30" as="geometry" />
        </mxCell>
        <mxCell id="pvoszcnUyvARYbqqxocD-70" value="40 x 40 x 1024" style="text;html=1;strokeColor=none;fillColor=none;align=center;verticalAlign=middle;whiteSpace=wrap;rounded=0;rotation=0;" vertex="1" parent="1">
          <mxGeometry x="380" y="310" width="90" height="30" as="geometry" />
        </mxCell>
        <mxCell id="pvoszcnUyvARYbqqxocD-71" value="20 x 20 x 512" style="text;html=1;strokeColor=none;fillColor=none;align=center;verticalAlign=middle;whiteSpace=wrap;rounded=0;rotation=0;" vertex="1" parent="1">
          <mxGeometry x="370" y="160" width="90" height="30" as="geometry" />
        </mxCell>
        <mxCell id="pvoszcnUyvARYbqqxocD-72" value="20 x 20 x 1024" style="text;html=1;strokeColor=none;fillColor=none;align=center;verticalAlign=middle;whiteSpace=wrap;rounded=0;rotation=0;" vertex="1" parent="1">
          <mxGeometry x="370" y="99" width="90" height="30" as="geometry" />
        </mxCell>
        <mxCell id="pvoszcnUyvARYbqqxocD-73" value="20 x 20 x 2048" style="text;html=1;strokeColor=none;fillColor=none;align=center;verticalAlign=middle;whiteSpace=wrap;rounded=0;rotation=0;" vertex="1" parent="1">
          <mxGeometry x="370" y="45" width="90" height="30" as="geometry" />
        </mxCell>
        <mxCell id="pvoszcnUyvARYbqqxocD-74" value="20 x 20 x 512" style="text;html=1;strokeColor=none;fillColor=none;align=center;verticalAlign=middle;whiteSpace=wrap;rounded=0;rotation=0;" vertex="1" parent="1">
          <mxGeometry x="160" y="136" width="90" height="30" as="geometry" />
        </mxCell>
        <mxCell id="pvoszcnUyvARYbqqxocD-75" value="20 x 20 x 256" style="text;html=1;strokeColor=none;fillColor=none;align=center;verticalAlign=middle;whiteSpace=wrap;rounded=0;rotation=0;" vertex="1" parent="1">
          <mxGeometry x="160" y="191" width="90" height="30" as="geometry" />
        </mxCell>
        <mxCell id="pvoszcnUyvARYbqqxocD-76" value="BConv" style="rounded=1;whiteSpace=wrap;html=1;" vertex="1" parent="1">
          <mxGeometry x="30" y="285" width="60" height="30" as="geometry" />
        </mxCell>
        <mxCell id="pvoszcnUyvARYbqqxocD-78" value="" style="edgeStyle=orthogonalEdgeStyle;rounded=0;orthogonalLoop=1;jettySize=auto;html=1;" edge="1" parent="1">
          <mxGeometry relative="1" as="geometry">
            <mxPoint x="-20" y="300" as="sourcePoint" />
            <mxPoint x="30" y="300" as="targetPoint" />
          </mxGeometry>
        </mxCell>
        <mxCell id="pvoszcnUyvARYbqqxocD-79" value="" style="edgeStyle=orthogonalEdgeStyle;rounded=0;orthogonalLoop=1;jettySize=auto;html=1;" edge="1" parent="1" source="pvoszcnUyvARYbqqxocD-80">
          <mxGeometry relative="1" as="geometry">
            <mxPoint x="140" y="610" as="targetPoint" />
          </mxGeometry>
        </mxCell>
        <mxCell id="pvoszcnUyvARYbqqxocD-80" value="BConv" style="rounded=1;whiteSpace=wrap;html=1;" vertex="1" parent="1">
          <mxGeometry x="30" y="595" width="60" height="30" as="geometry" />
        </mxCell>
        <mxCell id="pvoszcnUyvARYbqqxocD-81" value="" style="edgeStyle=orthogonalEdgeStyle;rounded=0;orthogonalLoop=1;jettySize=auto;html=1;" edge="1" parent="1">
          <mxGeometry relative="1" as="geometry">
            <mxPoint x="-20" y="610" as="sourcePoint" />
            <mxPoint x="30" y="610" as="targetPoint" />
          </mxGeometry>
        </mxCell>
        <mxCell id="pvoszcnUyvARYbqqxocD-82" value="40 x 40 x 256" style="text;html=1;strokeColor=none;fillColor=none;align=center;verticalAlign=middle;whiteSpace=wrap;rounded=0;rotation=0;" vertex="1" parent="1">
          <mxGeometry x="60" y="315" width="90" height="30" as="geometry" />
        </mxCell>
        <mxCell id="pvoszcnUyvARYbqqxocD-83" value="80 x 80 x 128" style="text;html=1;strokeColor=none;fillColor=none;align=center;verticalAlign=middle;whiteSpace=wrap;rounded=0;rotation=0;" vertex="1" parent="1">
          <mxGeometry x="60" y="625" width="90" height="30" as="geometry" />
        </mxCell>
        <mxCell id="pvoszcnUyvARYbqqxocD-84" value="40 x 40 x 256" style="text;html=1;strokeColor=none;fillColor=none;align=center;verticalAlign=middle;whiteSpace=wrap;rounded=0;rotation=0;" vertex="1" parent="1">
          <mxGeometry x="170" y="255" width="90" height="30" as="geometry" />
        </mxCell>
        <mxCell id="pvoszcnUyvARYbqqxocD-85" value="40 x 40 x 512" style="text;html=1;strokeColor=none;fillColor=none;align=center;verticalAlign=middle;whiteSpace=wrap;rounded=0;rotation=0;" vertex="1" parent="1">
          <mxGeometry x="170" y="320" width="90" height="30" as="geometry" />
        </mxCell>
        <mxCell id="pvoszcnUyvARYbqqxocD-86" value="40 x 40 x 1024" style="text;html=1;strokeColor=none;fillColor=none;align=center;verticalAlign=middle;whiteSpace=wrap;rounded=0;rotation=0;" vertex="1" parent="1">
          <mxGeometry x="170" y="380" width="90" height="30" as="geometry" />
        </mxCell>
        <mxCell id="pvoszcnUyvARYbqqxocD-87" value="40 x 40 x 256" style="text;html=1;strokeColor=none;fillColor=none;align=center;verticalAlign=middle;whiteSpace=wrap;rounded=0;rotation=0;" vertex="1" parent="1">
          <mxGeometry x="170" y="449" width="90" height="30" as="geometry" />
        </mxCell>
        <mxCell id="pvoszcnUyvARYbqqxocD-88" value="40 x 40 x 128" style="text;html=1;strokeColor=none;fillColor=none;align=center;verticalAlign=middle;whiteSpace=wrap;rounded=0;rotation=0;" vertex="1" parent="1">
          <mxGeometry x="170" y="500" width="90" height="30" as="geometry" />
        </mxCell>
        <mxCell id="pvoszcnUyvARYbqqxocD-89" value="80 x 80 x 128" style="text;html=1;strokeColor=none;fillColor=none;align=center;verticalAlign=middle;whiteSpace=wrap;rounded=0;rotation=0;" vertex="1" parent="1">
          <mxGeometry x="170" y="570" width="90" height="30" as="geometry" />
        </mxCell>
        <mxCell id="pvoszcnUyvARYbqqxocD-90" value="80 x 80 x 256" style="text;html=1;strokeColor=none;fillColor=none;align=center;verticalAlign=middle;whiteSpace=wrap;rounded=0;rotation=0;" vertex="1" parent="1">
          <mxGeometry x="170" y="630" width="90" height="30" as="geometry" />
        </mxCell>
        <mxCell id="pvoszcnUyvARYbqqxocD-91" value="80 x 80 x 512" style="text;html=1;strokeColor=none;fillColor=none;align=center;verticalAlign=middle;whiteSpace=wrap;rounded=0;rotation=0;" vertex="1" parent="1">
          <mxGeometry x="170" y="690" width="90" height="30" as="geometry" />
        </mxCell>
      </root>
    </mxGraphModel>
  </diagram>
  <diagram id="SSGCgLFxzLuy5WilCJ3O" name="Page-8">
    <mxGraphModel dx="882" dy="920" grid="1" gridSize="10" guides="1" tooltips="1" connect="1" arrows="1" fold="1" page="1" pageScale="1" pageWidth="850" pageHeight="1100" math="0" shadow="0">
      <root>
        <mxCell id="0" />
        <mxCell id="1" parent="0" />
        <mxCell id="TRyqTne_OeXW3luu9GWs-1" value="SPPCSPC" style="rounded=1;whiteSpace=wrap;html=1;" vertex="1" parent="1">
          <mxGeometry x="40" y="240" width="120" height="30" as="geometry" />
        </mxCell>
        <mxCell id="TRyqTne_OeXW3luu9GWs-15" style="edgeStyle=orthogonalEdgeStyle;rounded=0;orthogonalLoop=1;jettySize=auto;html=1;exitX=1;exitY=0.5;exitDx=0;exitDy=0;entryX=0;entryY=0.5;entryDx=0;entryDy=0;" edge="1" parent="1" source="TRyqTne_OeXW3luu9GWs-2" target="TRyqTne_OeXW3luu9GWs-3">
          <mxGeometry relative="1" as="geometry" />
        </mxCell>
        <mxCell id="TRyqTne_OeXW3luu9GWs-31" style="edgeStyle=orthogonalEdgeStyle;rounded=0;orthogonalLoop=1;jettySize=auto;html=1;exitX=0;exitY=0.5;exitDx=0;exitDy=0;entryX=0;entryY=0.5;entryDx=0;entryDy=0;startArrow=classic;startFill=1;" edge="1" parent="1" source="TRyqTne_OeXW3luu9GWs-2" target="TRyqTne_OeXW3luu9GWs-9">
          <mxGeometry relative="1" as="geometry" />
        </mxCell>
        <mxCell id="TRyqTne_OeXW3luu9GWs-2" value="BConv" style="rounded=1;whiteSpace=wrap;html=1;" vertex="1" parent="1">
          <mxGeometry x="220" y="240" width="60" height="30" as="geometry" />
        </mxCell>
        <mxCell id="TRyqTne_OeXW3luu9GWs-16" style="edgeStyle=orthogonalEdgeStyle;rounded=0;orthogonalLoop=1;jettySize=auto;html=1;exitX=1;exitY=0.5;exitDx=0;exitDy=0;entryX=0;entryY=0.5;entryDx=0;entryDy=0;" edge="1" parent="1" source="TRyqTne_OeXW3luu9GWs-3" target="TRyqTne_OeXW3luu9GWs-4">
          <mxGeometry relative="1" as="geometry" />
        </mxCell>
        <mxCell id="TRyqTne_OeXW3luu9GWs-3" value="BConv" style="rounded=1;whiteSpace=wrap;html=1;" vertex="1" parent="1">
          <mxGeometry x="300" y="240" width="60" height="30" as="geometry" />
        </mxCell>
        <mxCell id="TRyqTne_OeXW3luu9GWs-18" style="edgeStyle=orthogonalEdgeStyle;rounded=0;orthogonalLoop=1;jettySize=auto;html=1;exitX=1;exitY=0.5;exitDx=0;exitDy=0;entryX=0;entryY=0.5;entryDx=0;entryDy=0;" edge="1" parent="1" source="TRyqTne_OeXW3luu9GWs-4" target="TRyqTne_OeXW3luu9GWs-8">
          <mxGeometry relative="1" as="geometry" />
        </mxCell>
        <mxCell id="TRyqTne_OeXW3luu9GWs-4" value="BConv" style="rounded=1;whiteSpace=wrap;html=1;" vertex="1" parent="1">
          <mxGeometry x="380" y="240" width="60" height="30" as="geometry" />
        </mxCell>
        <mxCell id="TRyqTne_OeXW3luu9GWs-20" style="edgeStyle=orthogonalEdgeStyle;rounded=0;orthogonalLoop=1;jettySize=auto;html=1;exitX=0;exitY=0.25;exitDx=0;exitDy=0;startArrow=classic;startFill=1;endArrow=none;endFill=0;" edge="1" parent="1" source="TRyqTne_OeXW3luu9GWs-5">
          <mxGeometry relative="1" as="geometry">
            <mxPoint x="460" y="210" as="targetPoint" />
          </mxGeometry>
        </mxCell>
        <mxCell id="TRyqTne_OeXW3luu9GWs-23" style="edgeStyle=orthogonalEdgeStyle;rounded=0;orthogonalLoop=1;jettySize=auto;html=1;exitX=1;exitY=0.5;exitDx=0;exitDy=0;entryX=0;entryY=0.5;entryDx=0;entryDy=0;" edge="1" parent="1" source="TRyqTne_OeXW3luu9GWs-5" target="TRyqTne_OeXW3luu9GWs-10">
          <mxGeometry relative="1" as="geometry">
            <Array as="points">
              <mxPoint x="610" y="155" />
              <mxPoint x="610" y="180" />
            </Array>
          </mxGeometry>
        </mxCell>
        <mxCell id="TRyqTne_OeXW3luu9GWs-5" value="Maxpooling 5" style="rounded=1;whiteSpace=wrap;html=1;" vertex="1" parent="1">
          <mxGeometry x="480" y="140" width="90" height="30" as="geometry" />
        </mxCell>
        <mxCell id="TRyqTne_OeXW3luu9GWs-19" style="edgeStyle=orthogonalEdgeStyle;rounded=0;orthogonalLoop=1;jettySize=auto;html=1;exitX=0;exitY=0.5;exitDx=0;exitDy=0;startArrow=classic;startFill=1;endArrow=none;endFill=0;" edge="1" parent="1" source="TRyqTne_OeXW3luu9GWs-7">
          <mxGeometry relative="1" as="geometry">
            <mxPoint x="460" y="260" as="targetPoint" />
          </mxGeometry>
        </mxCell>
        <mxCell id="TRyqTne_OeXW3luu9GWs-25" style="edgeStyle=orthogonalEdgeStyle;rounded=0;orthogonalLoop=1;jettySize=auto;html=1;exitX=1;exitY=0.5;exitDx=0;exitDy=0;endArrow=none;endFill=0;" edge="1" parent="1" source="TRyqTne_OeXW3luu9GWs-7">
          <mxGeometry relative="1" as="geometry">
            <mxPoint x="610" y="180" as="targetPoint" />
            <Array as="points">
              <mxPoint x="610" y="205" />
            </Array>
          </mxGeometry>
        </mxCell>
        <mxCell id="TRyqTne_OeXW3luu9GWs-7" value="Maxpooling 9" style="rounded=1;whiteSpace=wrap;html=1;" vertex="1" parent="1">
          <mxGeometry x="480" y="190" width="90" height="30" as="geometry" />
        </mxCell>
        <mxCell id="TRyqTne_OeXW3luu9GWs-22" style="edgeStyle=orthogonalEdgeStyle;rounded=0;orthogonalLoop=1;jettySize=auto;html=1;exitX=1;exitY=0.5;exitDx=0;exitDy=0;endArrow=none;endFill=0;" edge="1" parent="1" source="TRyqTne_OeXW3luu9GWs-8">
          <mxGeometry relative="1" as="geometry">
            <mxPoint x="660" y="255" as="targetPoint" />
          </mxGeometry>
        </mxCell>
        <mxCell id="TRyqTne_OeXW3luu9GWs-8" value="Maxpooling 13" style="rounded=1;whiteSpace=wrap;html=1;" vertex="1" parent="1">
          <mxGeometry x="480" y="240" width="90" height="30" as="geometry" />
        </mxCell>
        <mxCell id="TRyqTne_OeXW3luu9GWs-29" style="edgeStyle=orthogonalEdgeStyle;rounded=0;orthogonalLoop=1;jettySize=auto;html=1;exitX=1;exitY=0.5;exitDx=0;exitDy=0;entryX=0.5;entryY=1;entryDx=0;entryDy=0;" edge="1" parent="1" source="TRyqTne_OeXW3luu9GWs-9" target="TRyqTne_OeXW3luu9GWs-13">
          <mxGeometry relative="1" as="geometry" />
        </mxCell>
        <mxCell id="TRyqTne_OeXW3luu9GWs-9" value="BConv" style="rounded=1;whiteSpace=wrap;html=1;" vertex="1" parent="1">
          <mxGeometry x="380" y="300" width="60" height="30" as="geometry" />
        </mxCell>
        <mxCell id="TRyqTne_OeXW3luu9GWs-21" style="edgeStyle=orthogonalEdgeStyle;rounded=0;orthogonalLoop=1;jettySize=auto;html=1;exitX=0.5;exitY=1;exitDx=0;exitDy=0;endArrow=none;endFill=0;startArrow=classic;startFill=1;" edge="1" parent="1" source="TRyqTne_OeXW3luu9GWs-10">
          <mxGeometry relative="1" as="geometry">
            <mxPoint x="460" y="260" as="targetPoint" />
            <Array as="points">
              <mxPoint x="660" y="300" />
              <mxPoint x="460" y="300" />
            </Array>
          </mxGeometry>
        </mxCell>
        <mxCell id="TRyqTne_OeXW3luu9GWs-26" style="edgeStyle=orthogonalEdgeStyle;rounded=0;orthogonalLoop=1;jettySize=auto;html=1;exitX=1;exitY=0.5;exitDx=0;exitDy=0;entryX=0;entryY=0.5;entryDx=0;entryDy=0;" edge="1" parent="1" source="TRyqTne_OeXW3luu9GWs-10" target="TRyqTne_OeXW3luu9GWs-11">
          <mxGeometry relative="1" as="geometry" />
        </mxCell>
        <mxCell id="TRyqTne_OeXW3luu9GWs-10" value="cat" style="ellipse;whiteSpace=wrap;html=1;aspect=fixed;" vertex="1" parent="1">
          <mxGeometry x="640" y="160" width="40" height="40" as="geometry" />
        </mxCell>
        <mxCell id="TRyqTne_OeXW3luu9GWs-27" style="edgeStyle=orthogonalEdgeStyle;rounded=0;orthogonalLoop=1;jettySize=auto;html=1;exitX=1;exitY=0.5;exitDx=0;exitDy=0;entryX=0;entryY=0.5;entryDx=0;entryDy=0;" edge="1" parent="1" source="TRyqTne_OeXW3luu9GWs-11" target="TRyqTne_OeXW3luu9GWs-12">
          <mxGeometry relative="1" as="geometry" />
        </mxCell>
        <mxCell id="TRyqTne_OeXW3luu9GWs-11" value="BConv" style="rounded=1;whiteSpace=wrap;html=1;" vertex="1" parent="1">
          <mxGeometry x="710" y="165" width="60" height="30" as="geometry" />
        </mxCell>
        <mxCell id="TRyqTne_OeXW3luu9GWs-28" style="edgeStyle=orthogonalEdgeStyle;rounded=0;orthogonalLoop=1;jettySize=auto;html=1;exitX=1;exitY=0.5;exitDx=0;exitDy=0;entryX=0;entryY=0.5;entryDx=0;entryDy=0;" edge="1" parent="1" source="TRyqTne_OeXW3luu9GWs-12" target="TRyqTne_OeXW3luu9GWs-13">
          <mxGeometry relative="1" as="geometry" />
        </mxCell>
        <mxCell id="TRyqTne_OeXW3luu9GWs-12" value="BConv" style="rounded=1;whiteSpace=wrap;html=1;" vertex="1" parent="1">
          <mxGeometry x="790" y="165" width="60" height="30" as="geometry" />
        </mxCell>
        <mxCell id="TRyqTne_OeXW3luu9GWs-30" style="edgeStyle=orthogonalEdgeStyle;rounded=0;orthogonalLoop=1;jettySize=auto;html=1;exitX=1;exitY=0.5;exitDx=0;exitDy=0;" edge="1" parent="1" source="TRyqTne_OeXW3luu9GWs-13" target="TRyqTne_OeXW3luu9GWs-14">
          <mxGeometry relative="1" as="geometry" />
        </mxCell>
        <mxCell id="TRyqTne_OeXW3luu9GWs-13" value="cat" style="ellipse;whiteSpace=wrap;html=1;aspect=fixed;" vertex="1" parent="1">
          <mxGeometry x="880" y="160" width="40" height="40" as="geometry" />
        </mxCell>
        <mxCell id="TRyqTne_OeXW3luu9GWs-14" value="BConv" style="rounded=1;whiteSpace=wrap;html=1;" vertex="1" parent="1">
          <mxGeometry x="950" y="165" width="60" height="30" as="geometry" />
        </mxCell>
        <mxCell id="TRyqTne_OeXW3luu9GWs-32" value="=" style="text;html=1;strokeColor=none;fillColor=none;align=center;verticalAlign=middle;whiteSpace=wrap;rounded=0;fontSize=19;" vertex="1" parent="1">
          <mxGeometry x="150" y="240" width="60" height="30" as="geometry" />
        </mxCell>
      </root>
    </mxGraphModel>
  </diagram>
  <diagram id="sO3kzVENVs0pZ6NVW6Rq" name="Page-9">
    <mxGraphModel dx="750" dy="1882" grid="1" gridSize="10" guides="1" tooltips="1" connect="1" arrows="1" fold="1" page="1" pageScale="1" pageWidth="850" pageHeight="1100" math="0" shadow="0">
      <root>
        <mxCell id="0" />
        <mxCell id="1" parent="0" />
        <mxCell id="LolRCKmHk95KDTD5yFDz-1" value="REP" style="rounded=1;whiteSpace=wrap;html=1;" vertex="1" parent="1">
          <mxGeometry x="10" y="79.5" width="70" height="40" as="geometry" />
        </mxCell>
        <mxCell id="LolRCKmHk95KDTD5yFDz-13" style="edgeStyle=orthogonalEdgeStyle;rounded=0;orthogonalLoop=1;jettySize=auto;html=1;exitX=1;exitY=0.5;exitDx=0;exitDy=0;entryX=0;entryY=0.5;entryDx=0;entryDy=0;" edge="1" parent="1" source="LolRCKmHk95KDTD5yFDz-2" target="LolRCKmHk95KDTD5yFDz-3">
          <mxGeometry relative="1" as="geometry" />
        </mxCell>
        <mxCell id="LolRCKmHk95KDTD5yFDz-2" value="Conv" style="rounded=1;whiteSpace=wrap;html=1;" vertex="1" parent="1">
          <mxGeometry x="170" y="20" width="70" height="40" as="geometry" />
        </mxCell>
        <mxCell id="LolRCKmHk95KDTD5yFDz-12" style="edgeStyle=orthogonalEdgeStyle;rounded=0;orthogonalLoop=1;jettySize=auto;html=1;exitX=1;exitY=0.5;exitDx=0;exitDy=0;" edge="1" parent="1" source="LolRCKmHk95KDTD5yFDz-3" target="LolRCKmHk95KDTD5yFDz-9">
          <mxGeometry relative="1" as="geometry" />
        </mxCell>
        <mxCell id="LolRCKmHk95KDTD5yFDz-3" value="BN" style="rounded=1;whiteSpace=wrap;html=1;" vertex="1" parent="1">
          <mxGeometry x="260" y="20" width="70" height="40" as="geometry" />
        </mxCell>
        <mxCell id="LolRCKmHk95KDTD5yFDz-7" style="edgeStyle=orthogonalEdgeStyle;rounded=0;orthogonalLoop=1;jettySize=auto;html=1;exitX=0;exitY=0.5;exitDx=0;exitDy=0;entryX=0;entryY=0.5;entryDx=0;entryDy=0;startArrow=classic;startFill=1;" edge="1" parent="1" source="LolRCKmHk95KDTD5yFDz-4" target="LolRCKmHk95KDTD5yFDz-2">
          <mxGeometry relative="1" as="geometry">
            <Array as="points">
              <mxPoint x="130" y="100" />
              <mxPoint x="130" y="40" />
            </Array>
          </mxGeometry>
        </mxCell>
        <mxCell id="LolRCKmHk95KDTD5yFDz-14" style="edgeStyle=orthogonalEdgeStyle;rounded=0;orthogonalLoop=1;jettySize=auto;html=1;exitX=1;exitY=0.5;exitDx=0;exitDy=0;entryX=0;entryY=0.5;entryDx=0;entryDy=0;" edge="1" parent="1" source="LolRCKmHk95KDTD5yFDz-4" target="LolRCKmHk95KDTD5yFDz-5">
          <mxGeometry relative="1" as="geometry" />
        </mxCell>
        <mxCell id="LolRCKmHk95KDTD5yFDz-4" value="Conv" style="rounded=1;whiteSpace=wrap;html=1;" vertex="1" parent="1">
          <mxGeometry x="170" y="80" width="70" height="40" as="geometry" />
        </mxCell>
        <mxCell id="LolRCKmHk95KDTD5yFDz-11" style="edgeStyle=orthogonalEdgeStyle;rounded=0;orthogonalLoop=1;jettySize=auto;html=1;exitX=1;exitY=0.5;exitDx=0;exitDy=0;entryX=0;entryY=0.5;entryDx=0;entryDy=0;" edge="1" parent="1" source="LolRCKmHk95KDTD5yFDz-5" target="LolRCKmHk95KDTD5yFDz-9">
          <mxGeometry relative="1" as="geometry" />
        </mxCell>
        <mxCell id="LolRCKmHk95KDTD5yFDz-5" value="BN" style="rounded=1;whiteSpace=wrap;html=1;" vertex="1" parent="1">
          <mxGeometry x="260" y="80" width="70" height="40" as="geometry" />
        </mxCell>
        <mxCell id="LolRCKmHk95KDTD5yFDz-8" style="edgeStyle=orthogonalEdgeStyle;rounded=0;orthogonalLoop=1;jettySize=auto;html=1;exitX=0;exitY=0.5;exitDx=0;exitDy=0;startArrow=none;startFill=0;dashed=1;dashPattern=8 8;endArrow=none;endFill=0;" edge="1" parent="1" source="LolRCKmHk95KDTD5yFDz-6">
          <mxGeometry relative="1" as="geometry">
            <mxPoint x="130" y="100" as="targetPoint" />
          </mxGeometry>
        </mxCell>
        <mxCell id="LolRCKmHk95KDTD5yFDz-10" style="edgeStyle=orthogonalEdgeStyle;rounded=0;orthogonalLoop=1;jettySize=auto;html=1;exitX=1;exitY=0.5;exitDx=0;exitDy=0;entryX=0.5;entryY=1;entryDx=0;entryDy=0;endArrow=none;endFill=0;dashed=1;dashPattern=12 12;" edge="1" parent="1" source="LolRCKmHk95KDTD5yFDz-6" target="LolRCKmHk95KDTD5yFDz-9">
          <mxGeometry relative="1" as="geometry" />
        </mxCell>
        <mxCell id="LolRCKmHk95KDTD5yFDz-6" value="BN" style="rounded=1;whiteSpace=wrap;html=1;" vertex="1" parent="1">
          <mxGeometry x="210" y="150" width="70" height="40" as="geometry" />
        </mxCell>
        <mxCell id="LolRCKmHk95KDTD5yFDz-15" style="edgeStyle=orthogonalEdgeStyle;rounded=0;orthogonalLoop=1;jettySize=auto;html=1;exitX=1;exitY=0.5;exitDx=0;exitDy=0;" edge="1" parent="1" source="LolRCKmHk95KDTD5yFDz-9">
          <mxGeometry relative="1" as="geometry">
            <mxPoint x="440" y="100" as="targetPoint" />
          </mxGeometry>
        </mxCell>
        <mxCell id="LolRCKmHk95KDTD5yFDz-9" value="add" style="ellipse;whiteSpace=wrap;html=1;aspect=fixed;" vertex="1" parent="1">
          <mxGeometry x="357" y="77" width="45" height="45" as="geometry" />
        </mxCell>
        <mxCell id="LolRCKmHk95KDTD5yFDz-17" value="=" style="text;html=1;strokeColor=none;fillColor=none;align=center;verticalAlign=middle;whiteSpace=wrap;rounded=0;strokeWidth=2;fontSize=20;" vertex="1" parent="1">
          <mxGeometry x="70" y="84.5" width="60" height="30" as="geometry" />
        </mxCell>
        <mxCell id="LolRCKmHk95KDTD5yFDz-18" value="Train" style="text;html=1;strokeColor=none;fillColor=none;align=center;verticalAlign=middle;whiteSpace=wrap;rounded=0;strokeWidth=2;fontSize=20;" vertex="1" parent="1">
          <mxGeometry x="10" width="60" height="30" as="geometry" />
        </mxCell>
        <mxCell id="LolRCKmHk95KDTD5yFDz-19" value="Deploy" style="text;html=1;strokeColor=none;fillColor=none;align=center;verticalAlign=middle;whiteSpace=wrap;rounded=0;strokeWidth=2;fontSize=20;" vertex="1" parent="1">
          <mxGeometry x="18" y="210" width="60" height="30" as="geometry" />
        </mxCell>
        <mxCell id="LolRCKmHk95KDTD5yFDz-20" value="REP" style="rounded=1;whiteSpace=wrap;html=1;" vertex="1" parent="1">
          <mxGeometry x="18" y="280" width="70" height="40" as="geometry" />
        </mxCell>
        <mxCell id="LolRCKmHk95KDTD5yFDz-23" style="edgeStyle=orthogonalEdgeStyle;rounded=0;orthogonalLoop=1;jettySize=auto;html=1;exitX=1;exitY=0.5;exitDx=0;exitDy=0;entryX=0;entryY=0.5;entryDx=0;entryDy=0;" edge="1" parent="1" source="LolRCKmHk95KDTD5yFDz-21" target="LolRCKmHk95KDTD5yFDz-22">
          <mxGeometry relative="1" as="geometry" />
        </mxCell>
        <mxCell id="LolRCKmHk95KDTD5yFDz-21" value="Conv" style="rounded=1;whiteSpace=wrap;html=1;" vertex="1" parent="1">
          <mxGeometry x="140" y="280" width="70" height="40" as="geometry" />
        </mxCell>
        <mxCell id="LolRCKmHk95KDTD5yFDz-22" value="BN" style="rounded=1;whiteSpace=wrap;html=1;" vertex="1" parent="1">
          <mxGeometry x="230" y="280" width="70" height="40" as="geometry" />
        </mxCell>
        <mxCell id="LolRCKmHk95KDTD5yFDz-24" value="=" style="text;html=1;strokeColor=none;fillColor=none;align=center;verticalAlign=middle;whiteSpace=wrap;rounded=0;strokeWidth=2;fontSize=20;" vertex="1" parent="1">
          <mxGeometry x="78" y="285" width="60" height="30" as="geometry" />
        </mxCell>
      </root>
    </mxGraphModel>
  </diagram>
</mxfile>
